<?xml version="1.0" encoding="UTF-8" standalone="no"?>
<!DOCTYPE svg PUBLIC "-//W3C//DTD SVG 1.1//EN"
 "http://www.w3.org/Graphics/SVG/1.1/DTD/svg11.dtd">
<!-- Generated by graphviz version 2.26.3 (20100126.1600)
 -->
<!-- Title: MenuItem Pages: 1 -->
<svg width="192pt" height="528pt"
 viewBox="0.00 0.00 192.00 528.00" xmlns="http://www.w3.org/2000/svg" xmlns:xlink="http://www.w3.org/1999/xlink">
<g id="graph1" class="graph" transform="scale(1 1) rotate(0) translate(4 524)">
<title>MenuItem</title>
<polygon fill="white" stroke="white" points="-4,5 -4,-524 189,-524 189,5 -4,5"/>
<!-- Box_UmlMethod -->
<g id="node1" class="node"><title>Box_UmlMethod</title>
<polygon fill="#fcfcda" stroke="black" points="-0.5,-1 -0.5,-145 184.5,-145 184.5,-1 -0.5,-1"/>
<text text-anchor="middle" x="92" y="-133.8" font-family="Helvetica,sans-Serif" font-size="8.00">UmlMethod</text>
<polyline fill="none" stroke="black" points="-0.5,-125 184.5,-125 "/>
<text text-anchor="start" x="7.5" y="-113.8" font-family="Helvetica,sans-Serif" font-size="8.00">Attributes:</text>
<text text-anchor="start" x="7.5" y="-101.8" font-family="Helvetica,sans-Serif" font-size="8.00">+ parameters : string[]</text>
<text text-anchor="start" x="7.5" y="-89.8" font-family="Helvetica,sans-Serif" font-size="8.00">+ returntype : string</text>
<text text-anchor="start" x="7.5" y="-77.8" font-family="Helvetica,sans-Serif" font-size="8.00">Methods:</text>
<polyline fill="none" stroke="black" points="-0.5,-69 184.5,-69 "/>
<text text-anchor="start" x="7.5" y="-57.8" font-family="Helvetica,sans-Serif" font-size="8.00">+ UmlMethod (CSharpBlock block)</text>
<text text-anchor="start" x="7.5" y="-45.8" font-family="Helvetica,sans-Serif" font-size="8.00">+ UmlMethod (UmlBlock block)</text>
<text text-anchor="start" x="7.5" y="-33.8" font-family="Helvetica,sans-Serif" font-size="8.00">+ Matches (CSharpBlock block) : bool static</text>
<text text-anchor="start" x="7.5" y="-21.8" font-family="Helvetica,sans-Serif" font-size="8.00">+ Matches (UmlBlock block) : bool static</text>
<text text-anchor="start" x="7.5" y="-9.8" font-family="Helvetica,sans-Serif" font-size="8.00">+ ToUmlCode (int padding = 0) : string override</text>
</g>
<!-- Box_UmlObject -->
<g id="node2" class="node"><title>Box_UmlObject</title>
<polygon fill="#fcfcda" stroke="black" points="9.5,-183 9.5,-315 174.5,-315 174.5,-183 9.5,-183"/>
<text text-anchor="middle" x="92" y="-303.8" font-family="Helvetica,sans-Serif" font-size="8.00">UmlObject</text>
<polyline fill="none" stroke="black" points="9.5,-295 174.5,-295 "/>
<text text-anchor="start" x="17.5" y="-283.8" font-family="Helvetica,sans-Serif" font-size="8.00">Attributes:</text>
<text text-anchor="start" x="17.5" y="-271.8" font-family="Helvetica,sans-Serif" font-size="8.00"># name : string</text>
<text text-anchor="start" x="17.5" y="-259.8" font-family="Helvetica,sans-Serif" font-size="8.00">+ Publicity : Publicity</text>
<text text-anchor="start" x="17.5" y="-247.8" font-family="Helvetica,sans-Serif" font-size="8.00">+ Virtuality : Virtuality</text>
<text text-anchor="start" x="17.5" y="-235.8" font-family="Helvetica,sans-Serif" font-size="8.00">+ Name : string</text>
<text text-anchor="start" x="17.5" y="-223.8" font-family="Helvetica,sans-Serif" font-size="8.00">Methods:</text>
<polyline fill="none" stroke="black" points="9.5,-215 174.5,-215 "/>
<text text-anchor="start" x="17.5" y="-203.8" font-family="Helvetica,sans-Serif" font-size="8.00">+ (block.Name) : this (CSharpBlock block)</text>
<text text-anchor="start" x="17.5" y="-191.8" font-family="Helvetica,sans-Serif" font-size="8.00">+ (block.Name) : this (UmlBlock block)</text>
</g>
<!-- Box_UmlObject&#45;&gt;Box_UmlMethod -->
<g id="edge2" class="edge"><title>Box_UmlObject&#45;&gt;Box_UmlMethod</title>
<path fill="none" stroke="midnightblue" d="M92,-172.684C92,-163.496 92,-154.134 92,-145.009"/>
<polygon fill="none" stroke="midnightblue" points="88.5001,-172.963 92,-182.963 95.5001,-172.963 88.5001,-172.963"/>
</g>
<!-- Box_IUmlObject -->
<g id="node3" class="node"><title>Box_IUmlObject</title>
<polygon fill="#dafcda" stroke="black" points="15,-353 15,-461 169,-461 169,-353 15,-353"/>
<text text-anchor="middle" x="92" y="-449.8" font-family="Helvetica,sans-Serif" font-size="8.00">IUmlObject</text>
<polyline fill="none" stroke="black" points="15,-441 169,-441 "/>
<text text-anchor="start" x="23" y="-429.8" font-family="Helvetica,sans-Serif" font-size="8.00">Attributes:</text>
<text text-anchor="start" x="23" y="-417.8" font-family="Helvetica,sans-Serif" font-size="8.00">+ Publicity : Publicity</text>
<text text-anchor="start" x="23" y="-405.8" font-family="Helvetica,sans-Serif" font-size="8.00">+ Virtuality : Virtuality</text>
<text text-anchor="start" x="23" y="-393.8" font-family="Helvetica,sans-Serif" font-size="8.00">+ Name : string</text>
<text text-anchor="start" x="23" y="-381.8" font-family="Helvetica,sans-Serif" font-size="8.00">Methods:</text>
<polyline fill="none" stroke="black" points="15,-373 169,-373 "/>
<text text-anchor="start" x="23" y="-361.8" font-family="Helvetica,sans-Serif" font-size="8.00">+ ToUmlCode (int padding = 0) : string</text>
</g>
<!-- Box_IUmlObject&#45;&gt;Box_UmlObject -->
<g id="edge4" class="edge"><title>Box_IUmlObject&#45;&gt;Box_UmlObject</title>
<path fill="none" stroke="midnightblue" d="M92,-342.576C92,-333.552 92,-324.266 92,-315.21"/>
<polygon fill="none" stroke="midnightblue" points="88.5001,-342.625 92,-352.625 95.5001,-342.625 88.5001,-342.625"/>
</g>
<!-- Box_IEquatable -->
<g id="node4" class="node"><title>Box_IEquatable</title>
<polygon fill="#ffffff" stroke="black" points="40.5,-499 40.5,-519 143.5,-519 143.5,-499 40.5,-499"/>
<text text-anchor="middle" x="92" y="-507.8" font-family="Helvetica,sans-Serif" font-size="8.00">IEquatable&lt;IUmlObject&gt;</text>
</g>
<!-- Box_IEquatable&#45;&gt;Box_IUmlObject -->
<g id="edge6" class="edge"><title>Box_IEquatable&#45;&gt;Box_IUmlObject</title>
<path fill="none" stroke="midnightblue" d="M92,-488.752C92,-480.743 92,-471.119 92,-461.332"/>
<polygon fill="none" stroke="midnightblue" points="88.5001,-488.847 92,-498.847 95.5001,-488.847 88.5001,-488.847"/>
</g>
</g>
</svg>
