<?xml version="1.0" encoding="UTF-8" standalone="no"?>
<!DOCTYPE svg PUBLIC "-//W3C//DTD SVG 1.1//EN"
 "http://www.w3.org/Graphics/SVG/1.1/DTD/svg11.dtd">
<!-- Generated by graphviz version 2.26.3 (20100126.1600)
 -->
<!-- Title: MenuItem Pages: 1 -->
<svg width="212pt" height="276pt"
 viewBox="0.00 0.00 212.00 276.00" xmlns="http://www.w3.org/2000/svg" xmlns:xlink="http://www.w3.org/1999/xlink">
<g id="graph1" class="graph" transform="scale(1 1) rotate(0) translate(4 272)">
<title>MenuItem</title>
<polygon fill="white" stroke="white" points="-4,5 -4,-272 209,-272 209,5 -4,5"/>
<!-- Box_CSharpBlock -->
<g id="node1" class="node"><title>Box_CSharpBlock</title>
<polygon fill="#fcfcda" stroke="black" points="0,-1 0,-85 204,-85 204,-1 0,-1"/>
<text text-anchor="middle" x="102" y="-73.8" font-family="Helvetica,sans-Serif" font-size="8.00">CSharpBlock</text>
<polyline fill="none" stroke="black" points="0,-65 204,-65 "/>
<text text-anchor="start" x="8" y="-53.8" font-family="Helvetica,sans-Serif" font-size="8.00">Attributes:</text>
<text text-anchor="start" x="8" y="-41.8" font-family="Helvetica,sans-Serif" font-size="8.00">Methods:</text>
<polyline fill="none" stroke="black" points="0,-33 204,-33 "/>
<text text-anchor="start" x="8" y="-21.8" font-family="Helvetica,sans-Serif" font-size="8.00">+ CSharpBlock (string name, CSharpBlock[] content)</text>
<text text-anchor="start" x="8" y="-9.8" font-family="Helvetica,sans-Serif" font-size="8.00">+ CSharpBlock (string name)</text>
</g>
<!-- Box_Block -->
<g id="node2" class="node"><title>Box_Block</title>
<polygon fill="#fcfcda" stroke="black" points="34.5,-123 34.5,-267 169.5,-267 169.5,-123 34.5,-123"/>
<text text-anchor="middle" x="102" y="-255.8" font-family="Helvetica,sans-Serif" font-size="8.00">Block&lt;T&gt;</text>
<polyline fill="none" stroke="black" points="34.5,-247 169.5,-247 "/>
<text text-anchor="start" x="42.5" y="-235.8" font-family="Helvetica,sans-Serif" font-size="8.00">Attributes:</text>
<text text-anchor="start" x="42.5" y="-223.8" font-family="Helvetica,sans-Serif" font-size="8.00">+ Name : string</text>
<text text-anchor="start" x="42.5" y="-211.8" font-family="Helvetica,sans-Serif" font-size="8.00">+ Content : T[]</text>
<text text-anchor="start" x="42.5" y="-199.8" font-family="Helvetica,sans-Serif" font-size="8.00">+ Count : int</text>
<text text-anchor="start" x="42.5" y="-187.8" font-family="Helvetica,sans-Serif" font-size="8.00">Methods:</text>
<polyline fill="none" stroke="black" points="34.5,-179 169.5,-179 "/>
<text text-anchor="start" x="42.5" y="-167.8" font-family="Helvetica,sans-Serif" font-size="8.00">+ Block (string name, T[] content)</text>
<text text-anchor="start" x="42.5" y="-155.8" font-family="Helvetica,sans-Serif" font-size="8.00">+ Block (string name)</text>
<text text-anchor="start" x="42.5" y="-143.8" font-family="Helvetica,sans-Serif" font-size="8.00">+ ToString () : string override</text>
<text text-anchor="start" x="42.5" y="-131.8" font-family="Helvetica,sans-Serif" font-size="8.00">+ ToString (int padding) : string</text>
</g>
<!-- Box_Block&#45;&gt;Box_CSharpBlock -->
<g id="edge2" class="edge"><title>Box_Block&#45;&gt;Box_CSharpBlock</title>
<path fill="none" stroke="midnightblue" d="M102,-112.324C102,-102.913 102,-93.6404 102,-85.0882"/>
<polygon fill="none" stroke="midnightblue" points="98.5001,-112.561 102,-122.561 105.5,-112.561 98.5001,-112.561"/>
</g>
</g>
</svg>
