<?xml version="1.0" encoding="UTF-8" standalone="no"?>
<!DOCTYPE svg PUBLIC "-//W3C//DTD SVG 1.1//EN"
 "http://www.w3.org/Graphics/SVG/1.1/DTD/svg11.dtd">
<!-- Generated by graphviz version 2.26.3 (20100126.1600)
 -->
<!-- Title: MenuItem Pages: 1 -->
<svg width="3160pt" height="772pt"
 viewBox="0.00 0.00 3160.00 772.00" xmlns="http://www.w3.org/2000/svg" xmlns:xlink="http://www.w3.org/1999/xlink">
<g id="graph1" class="graph" transform="scale(1 1) rotate(0) translate(4 768)">
<title>MenuItem</title>
<polygon fill="white" stroke="white" points="-4,5 -4,-768 3157,-768 3157,5 -4,5"/>
<!-- Box_Block -->
<g id="node1" class="node"><title>Box_Block</title>
<polygon fill="#fcfcda" stroke="black" points="138.5,-613 138.5,-757 273.5,-757 273.5,-613 138.5,-613"/>
<text text-anchor="middle" x="206" y="-745.8" font-family="Helvetica,sans-Serif" font-size="8.00">Block&lt;T&gt;</text>
<polyline fill="none" stroke="black" points="138.5,-737 273.5,-737 "/>
<text text-anchor="start" x="146.5" y="-725.8" font-family="Helvetica,sans-Serif" font-size="8.00">Attributes:</text>
<text text-anchor="start" x="146.5" y="-713.8" font-family="Helvetica,sans-Serif" font-size="8.00">+ Name : string</text>
<text text-anchor="start" x="146.5" y="-701.8" font-family="Helvetica,sans-Serif" font-size="8.00">+ Content : T[]</text>
<text text-anchor="start" x="146.5" y="-689.8" font-family="Helvetica,sans-Serif" font-size="8.00">+ Count : int</text>
<text text-anchor="start" x="146.5" y="-677.8" font-family="Helvetica,sans-Serif" font-size="8.00">Methods:</text>
<polyline fill="none" stroke="black" points="138.5,-669 273.5,-669 "/>
<text text-anchor="start" x="146.5" y="-657.8" font-family="Helvetica,sans-Serif" font-size="8.00">+ Block (string name, T[] content)</text>
<text text-anchor="start" x="146.5" y="-645.8" font-family="Helvetica,sans-Serif" font-size="8.00">+ Block (string name)</text>
<text text-anchor="start" x="146.5" y="-633.8" font-family="Helvetica,sans-Serif" font-size="8.00">+ ToString () : string override</text>
<text text-anchor="start" x="146.5" y="-621.8" font-family="Helvetica,sans-Serif" font-size="8.00">+ ToString (int padding) : string</text>
</g>
<!-- Box_CSharpBlock -->
<g id="node2" class="node"><title>Box_CSharpBlock</title>
<polygon fill="#fcfcda" stroke="black" points="0,-467 0,-551 204,-551 204,-467 0,-467"/>
<text text-anchor="middle" x="102" y="-539.8" font-family="Helvetica,sans-Serif" font-size="8.00">CSharpBlock</text>
<polyline fill="none" stroke="black" points="0,-531 204,-531 "/>
<text text-anchor="start" x="8" y="-519.8" font-family="Helvetica,sans-Serif" font-size="8.00">Attributes:</text>
<text text-anchor="start" x="8" y="-507.8" font-family="Helvetica,sans-Serif" font-size="8.00">Methods:</text>
<polyline fill="none" stroke="black" points="0,-499 204,-499 "/>
<text text-anchor="start" x="8" y="-487.8" font-family="Helvetica,sans-Serif" font-size="8.00">+ CSharpBlock (string name, CSharpBlock[] content)</text>
<text text-anchor="start" x="8" y="-475.8" font-family="Helvetica,sans-Serif" font-size="8.00">+ CSharpBlock (string name)</text>
</g>
<!-- Box_Block&#45;&gt;Box_CSharpBlock -->
<g id="edge2" class="edge"><title>Box_Block&#45;&gt;Box_CSharpBlock</title>
<path fill="none" stroke="midnightblue" d="M158.134,-603.995C147.352,-585.749 136.331,-567.099 126.942,-551.21"/>
<polygon fill="none" stroke="midnightblue" points="155.299,-606.078 163.399,-612.906 161.325,-602.516 155.299,-606.078"/>
</g>
<!-- Box_UmlBlock -->
<g id="node14" class="node"><title>Box_UmlBlock</title>
<polygon fill="#fcfcda" stroke="black" points="221.5,-467 221.5,-551 398.5,-551 398.5,-467 221.5,-467"/>
<text text-anchor="middle" x="310" y="-539.8" font-family="Helvetica,sans-Serif" font-size="8.00">UmlBlock</text>
<polyline fill="none" stroke="black" points="221.5,-531 398.5,-531 "/>
<text text-anchor="start" x="229.5" y="-519.8" font-family="Helvetica,sans-Serif" font-size="8.00">Attributes:</text>
<text text-anchor="start" x="229.5" y="-507.8" font-family="Helvetica,sans-Serif" font-size="8.00">Methods:</text>
<polyline fill="none" stroke="black" points="221.5,-499 398.5,-499 "/>
<text text-anchor="start" x="229.5" y="-487.8" font-family="Helvetica,sans-Serif" font-size="8.00">+ UmlBlock (string name, UmlBlock[] content)</text>
<text text-anchor="start" x="229.5" y="-475.8" font-family="Helvetica,sans-Serif" font-size="8.00">+ UmlBlock (string name)</text>
</g>
<!-- Box_Block&#45;&gt;Box_UmlBlock -->
<g id="edge10" class="edge"><title>Box_Block&#45;&gt;Box_UmlBlock</title>
<path fill="none" stroke="midnightblue" d="M253.866,-603.995C264.648,-585.749 275.669,-567.099 285.058,-551.21"/>
<polygon fill="none" stroke="midnightblue" points="250.675,-602.516 248.601,-612.906 256.701,-606.078 250.675,-602.516"/>
</g>
<!-- Box_CSharpParser -->
<g id="node3" class="node"><title>Box_CSharpParser</title>
<polygon fill="#fcfcda" stroke="black" points="415.5,-455 415.5,-563 674.5,-563 674.5,-455 415.5,-455"/>
<text text-anchor="middle" x="545" y="-551.8" font-family="Helvetica,sans-Serif" font-size="8.00">CSharpParser</text>
<polyline fill="none" stroke="black" points="415.5,-543 674.5,-543 "/>
<text text-anchor="start" x="423.5" y="-531.8" font-family="Helvetica,sans-Serif" font-size="8.00">Attributes:</text>
<text text-anchor="start" x="423.5" y="-519.8" font-family="Helvetica,sans-Serif" font-size="8.00">Methods:</text>
<polyline fill="none" stroke="black" points="415.5,-511 674.5,-511 "/>
<text text-anchor="start" x="423.5" y="-499.8" font-family="Helvetica,sans-Serif" font-size="8.00">+ CSharpParser ()</text>
<text text-anchor="start" x="423.5" y="-487.8" font-family="Helvetica,sans-Serif" font-size="8.00">+ Parse (char[] chars, ref int i) : CSharpBlock[]</text>
<text text-anchor="start" x="423.5" y="-475.8" font-family="Helvetica,sans-Serif" font-size="8.00">+ Parse (IEnumerable&lt;string&gt; lines) : IEnumerable&lt;IUmlObject&gt;</text>
<text text-anchor="start" x="423.5" y="-463.8" font-family="Helvetica,sans-Serif" font-size="8.00">&#45; StripComments (IEnumerable&lt;string&gt; lines) : IEnumerable&lt;string&gt;</text>
</g>
<!-- Box_ClassDiagram -->
<g id="node4" class="node"><title>Box_ClassDiagram</title>
<polygon fill="#fcfcda" stroke="black" points="819.5,-631 819.5,-739 1022.5,-739 1022.5,-631 819.5,-631"/>
<text text-anchor="middle" x="921" y="-727.8" font-family="Helvetica,sans-Serif" font-size="8.00">ClassDiagram</text>
<polyline fill="none" stroke="black" points="819.5,-719 1022.5,-719 "/>
<text text-anchor="start" x="827.5" y="-707.8" font-family="Helvetica,sans-Serif" font-size="8.00">Attributes:</text>
<text text-anchor="start" x="827.5" y="-695.8" font-family="Helvetica,sans-Serif" font-size="8.00">&#45; objects : IUmlObject[]</text>
<text text-anchor="start" x="827.5" y="-683.8" font-family="Helvetica,sans-Serif" font-size="8.00">Methods:</text>
<polyline fill="none" stroke="black" points="819.5,-675 1022.5,-675 "/>
<text text-anchor="start" x="827.5" y="-663.8" font-family="Helvetica,sans-Serif" font-size="8.00">+ ClassDiagram (IEnumerable&lt;IUmlObject&gt; objects)</text>
<text text-anchor="start" x="827.5" y="-651.8" font-family="Helvetica,sans-Serif" font-size="8.00">+ DotCode () : IEnumerable&lt;string&gt;</text>
<text text-anchor="start" x="827.5" y="-639.8" font-family="Helvetica,sans-Serif" font-size="8.00">&#45; Escape (string str) : string static</text>
</g>
<!-- Box_Files -->
<g id="node5" class="node"><title>Box_Files</title>
<polygon fill="#fcfcda" stroke="black" points="1040,-625 1040,-745 1436,-745 1436,-625 1040,-625"/>
<text text-anchor="middle" x="1238" y="-733.8" font-family="Helvetica,sans-Serif" font-size="8.00">Files</text>
<polyline fill="none" stroke="black" points="1040,-725 1436,-725 "/>
<text text-anchor="start" x="1048" y="-713.8" font-family="Helvetica,sans-Serif" font-size="8.00">Attributes:</text>
<text text-anchor="start" x="1048" y="-701.8" font-family="Helvetica,sans-Serif" font-size="8.00">Methods:</text>
<polyline fill="none" stroke="black" points="1040,-693 1436,-693 "/>
<text text-anchor="start" x="1048" y="-681.8" font-family="Helvetica,sans-Serif" font-size="8.00">+ WriteLines (string filename, IEnumerable&lt;string&gt; lines) static</text>
<text text-anchor="start" x="1048" y="-669.8" font-family="Helvetica,sans-Serif" font-size="8.00">+ ReadLines (string filename) : IEnumerable&lt;string&gt; static</text>
<text text-anchor="start" x="1048" y="-657.8" font-family="Helvetica,sans-Serif" font-size="8.00">+ SearchFiles (IEnumerable&lt;string&gt; directories, IEnumerable&lt;string&gt; extensions, Action&lt;string&gt; add) static</text>
<text text-anchor="start" x="1048" y="-645.8" font-family="Helvetica,sans-Serif" font-size="8.00">+ SearchFiles (string directory, IEnumerable&lt;string&gt; extensions, Action&lt;string&gt; add) static</text>
<text text-anchor="start" x="1048" y="-633.8" font-family="Helvetica,sans-Serif" font-size="8.00">+ ToCharacters (this IEnumerable&lt;string&gt; lines) : IEnumerable&lt;char&gt; static</text>
</g>
<!-- Box_GraphViz -->
<g id="node6" class="node"><title>Box_GraphViz</title>
<polygon fill="#fcfcda" stroke="black" points="1454,-649 1454,-721 1656,-721 1656,-649 1454,-649"/>
<text text-anchor="middle" x="1555" y="-709.8" font-family="Helvetica,sans-Serif" font-size="8.00">GraphViz</text>
<polyline fill="none" stroke="black" points="1454,-701 1656,-701 "/>
<text text-anchor="start" x="1462" y="-689.8" font-family="Helvetica,sans-Serif" font-size="8.00">Attributes:</text>
<text text-anchor="start" x="1462" y="-677.8" font-family="Helvetica,sans-Serif" font-size="8.00">Methods:</text>
<polyline fill="none" stroke="black" points="1454,-669 1656,-669 "/>
<text text-anchor="start" x="1462" y="-657.8" font-family="Helvetica,sans-Serif" font-size="8.00">+ Dot (string format, string input, string output) static</text>
</g>
<!-- Box_IParser -->
<g id="node7" class="node"><title>Box_IParser</title>
<polygon fill="#dafcda" stroke="black" points="557.5,-643 557.5,-727 802.5,-727 802.5,-643 557.5,-643"/>
<text text-anchor="middle" x="680" y="-715.8" font-family="Helvetica,sans-Serif" font-size="8.00">IParser</text>
<polyline fill="none" stroke="black" points="557.5,-707 802.5,-707 "/>
<text text-anchor="start" x="565.5" y="-695.8" font-family="Helvetica,sans-Serif" font-size="8.00">Attributes:</text>
<text text-anchor="start" x="565.5" y="-683.8" font-family="Helvetica,sans-Serif" font-size="8.00">Methods:</text>
<polyline fill="none" stroke="black" points="557.5,-675 802.5,-675 "/>
<text text-anchor="start" x="565.5" y="-663.8" font-family="Helvetica,sans-Serif" font-size="8.00">+ Parse (IEnumerable&lt;string&gt; lines) : IEnumerable&lt;IUmlObject&gt;</text>
<text text-anchor="start" x="565.5" y="-651.8" font-family="Helvetica,sans-Serif" font-size="8.00">+ Parse (string filename) : IEnumerable&lt;IUmlObject&gt;</text>
</g>
<!-- Box_IParser&#45;&gt;Box_CSharpParser -->
<g id="edge4" class="edge"><title>Box_IParser&#45;&gt;Box_CSharpParser</title>
<path fill="none" stroke="midnightblue" d="M641.488,-634.791C624.314,-612.402 604.051,-585.985 586.538,-563.153"/>
<polygon fill="none" stroke="midnightblue" points="638.801,-637.039 647.664,-642.844 644.355,-632.779 638.801,-637.039"/>
</g>
<!-- Box_UmlParser -->
<g id="node21" class="node"><title>Box_UmlParser</title>
<polygon fill="#fcfcda" stroke="black" points="691.5,-449 691.5,-569 940.5,-569 940.5,-449 691.5,-449"/>
<text text-anchor="middle" x="816" y="-557.8" font-family="Helvetica,sans-Serif" font-size="8.00">UmlParser</text>
<polyline fill="none" stroke="black" points="691.5,-549 940.5,-549 "/>
<text text-anchor="start" x="699.5" y="-537.8" font-family="Helvetica,sans-Serif" font-size="8.00">Attributes:</text>
<text text-anchor="start" x="699.5" y="-525.8" font-family="Helvetica,sans-Serif" font-size="8.00">Methods:</text>
<polyline fill="none" stroke="black" points="691.5,-517 940.5,-517 "/>
<text text-anchor="start" x="699.5" y="-505.8" font-family="Helvetica,sans-Serif" font-size="8.00">+ UmlParser ()</text>
<text text-anchor="start" x="699.5" y="-493.8" font-family="Helvetica,sans-Serif" font-size="8.00">&#45; ParseBlocks (string[] lines, ref int i, int parentIndent) : UmlBlock[]</text>
<text text-anchor="start" x="699.5" y="-481.8" font-family="Helvetica,sans-Serif" font-size="8.00">+ Parse (IEnumerable&lt;string&gt; lines) : IEnumerable&lt;IUmlObject&gt;</text>
<text text-anchor="start" x="699.5" y="-469.8" font-family="Helvetica,sans-Serif" font-size="8.00">&#45; FilterIgnoreLines (string line) : bool</text>
<text text-anchor="start" x="699.5" y="-457.8" font-family="Helvetica,sans-Serif" font-size="8.00">+ Parse (string filename) : IEnumerable&lt;IUmlObject&gt;</text>
</g>
<!-- Box_IParser&#45;&gt;Box_UmlParser -->
<g id="edge20" class="edge"><title>Box_IParser&#45;&gt;Box_UmlParser</title>
<path fill="none" stroke="midnightblue" d="M718.73,-634.879C734.558,-614.396 753,-590.529 769.545,-569.118"/>
<polygon fill="none" stroke="midnightblue" points="715.92,-632.791 712.575,-642.844 721.459,-637.071 715.92,-632.791"/>
</g>
<!-- Box_IUmlObject -->
<g id="node8" class="node"><title>Box_IUmlObject</title>
<polygon fill="#dafcda" stroke="black" points="1648,-455 1648,-563 1802,-563 1802,-455 1648,-455"/>
<text text-anchor="middle" x="1725" y="-551.8" font-family="Helvetica,sans-Serif" font-size="8.00">IUmlObject</text>
<polyline fill="none" stroke="black" points="1648,-543 1802,-543 "/>
<text text-anchor="start" x="1656" y="-531.8" font-family="Helvetica,sans-Serif" font-size="8.00">Attributes:</text>
<text text-anchor="start" x="1656" y="-519.8" font-family="Helvetica,sans-Serif" font-size="8.00">+ Publicity : Publicity</text>
<text text-anchor="start" x="1656" y="-507.8" font-family="Helvetica,sans-Serif" font-size="8.00">+ Virtuality : Virtuality</text>
<text text-anchor="start" x="1656" y="-495.8" font-family="Helvetica,sans-Serif" font-size="8.00">+ Name : string</text>
<text text-anchor="start" x="1656" y="-483.8" font-family="Helvetica,sans-Serif" font-size="8.00">Methods:</text>
<polyline fill="none" stroke="black" points="1648,-475 1802,-475 "/>
<text text-anchor="start" x="1656" y="-463.8" font-family="Helvetica,sans-Serif" font-size="8.00">+ ToUmlCode (int padding = 0) : string</text>
</g>
<!-- Box_UmlObject -->
<g id="node20" class="node"><title>Box_UmlObject</title>
<polygon fill="#fcfcda" stroke="black" points="1642.5,-279 1642.5,-411 1807.5,-411 1807.5,-279 1642.5,-279"/>
<text text-anchor="middle" x="1725" y="-399.8" font-family="Helvetica,sans-Serif" font-size="8.00">UmlObject</text>
<polyline fill="none" stroke="black" points="1642.5,-391 1807.5,-391 "/>
<text text-anchor="start" x="1650.5" y="-379.8" font-family="Helvetica,sans-Serif" font-size="8.00">Attributes:</text>
<text text-anchor="start" x="1650.5" y="-367.8" font-family="Helvetica,sans-Serif" font-size="8.00"># name : string</text>
<text text-anchor="start" x="1650.5" y="-355.8" font-family="Helvetica,sans-Serif" font-size="8.00">+ Publicity : Publicity</text>
<text text-anchor="start" x="1650.5" y="-343.8" font-family="Helvetica,sans-Serif" font-size="8.00">+ Virtuality : Virtuality</text>
<text text-anchor="start" x="1650.5" y="-331.8" font-family="Helvetica,sans-Serif" font-size="8.00">+ Name : string</text>
<text text-anchor="start" x="1650.5" y="-319.8" font-family="Helvetica,sans-Serif" font-size="8.00">Methods:</text>
<polyline fill="none" stroke="black" points="1642.5,-311 1807.5,-311 "/>
<text text-anchor="start" x="1650.5" y="-299.8" font-family="Helvetica,sans-Serif" font-size="8.00">+ (block.Name) : this (CSharpBlock block)</text>
<text text-anchor="start" x="1650.5" y="-287.8" font-family="Helvetica,sans-Serif" font-size="8.00">+ (block.Name) : this (UmlBlock block)</text>
</g>
<!-- Box_IUmlObject&#45;&gt;Box_UmlObject -->
<g id="edge18" class="edge"><title>Box_IUmlObject&#45;&gt;Box_UmlObject</title>
<path fill="none" stroke="midnightblue" d="M1725,-444.828C1725,-433.753 1725,-422.222 1725,-411.098"/>
<polygon fill="none" stroke="midnightblue" points="1721.5,-444.846 1725,-454.846 1728.5,-444.846 1721.5,-444.846"/>
</g>
<!-- Box_Inheritance -->
<g id="node9" class="node"><title>Box_Inheritance</title>
<polygon fill="#fcfcda" stroke="black" points="1794,-631 1794,-739 2150,-739 2150,-631 1794,-631"/>
<text text-anchor="middle" x="1972" y="-727.8" font-family="Helvetica,sans-Serif" font-size="8.00">Inheritance</text>
<polyline fill="none" stroke="black" points="1794,-719 2150,-719 "/>
<text text-anchor="start" x="1802" y="-707.8" font-family="Helvetica,sans-Serif" font-size="8.00">Attributes:</text>
<text text-anchor="start" x="1802" y="-695.8" font-family="Helvetica,sans-Serif" font-size="8.00">+ Base : IUmlObject</text>
<text text-anchor="start" x="1802" y="-683.8" font-family="Helvetica,sans-Serif" font-size="8.00">+ Derived : IUmlObject</text>
<text text-anchor="start" x="1802" y="-671.8" font-family="Helvetica,sans-Serif" font-size="8.00">Methods:</text>
<polyline fill="none" stroke="black" points="1794,-663 2150,-663 "/>
<text text-anchor="start" x="1802" y="-651.8" font-family="Helvetica,sans-Serif" font-size="8.00">+ Inheritance (IUmlObject baseobj, IUmlObject derivedobj)</text>
<text text-anchor="start" x="1802" y="-639.8" font-family="Helvetica,sans-Serif" font-size="8.00">+ From (IUmlObject[] objects, out List&lt;Inheritance&gt; inhs, out List&lt;string&gt; unknownObjects) static</text>
</g>
<!-- Box_MainClass -->
<g id="node10" class="node"><title>Box_MainClass</title>
<polygon fill="#fcfcda" stroke="black" points="2168,-631 2168,-739 2364,-739 2364,-631 2168,-631"/>
<text text-anchor="middle" x="2266" y="-727.8" font-family="Helvetica,sans-Serif" font-size="8.00">MainClass</text>
<polyline fill="none" stroke="black" points="2168,-719 2364,-719 "/>
<text text-anchor="start" x="2176" y="-707.8" font-family="Helvetica,sans-Serif" font-size="8.00">Attributes:</text>
<text text-anchor="start" x="2176" y="-695.8" font-family="Helvetica,sans-Serif" font-size="8.00">Methods:</text>
<polyline fill="none" stroke="black" points="2168,-687 2364,-687 "/>
<text text-anchor="start" x="2176" y="-675.8" font-family="Helvetica,sans-Serif" font-size="8.00">+ Main (string[] args) static</text>
<text text-anchor="start" x="2176" y="-663.8" font-family="Helvetica,sans-Serif" font-size="8.00">&#45; Code2Uml (IEnumerable&lt;string&gt; paths) static</text>
<text text-anchor="start" x="2176" y="-651.8" font-family="Helvetica,sans-Serif" font-size="8.00">&#45; Uml2Code (IEnumerable&lt;string&gt; paths) static</text>
<text text-anchor="start" x="2176" y="-639.8" font-family="Helvetica,sans-Serif" font-size="8.00">&#45; Uml2Diagram (IEnumerable&lt;string&gt; paths) static</text>
</g>
<!-- Box_Processing -->
<g id="node11" class="node"><title>Box_Processing</title>
<polygon fill="#fcfcda" stroke="black" points="2381.5,-631 2381.5,-739 2458.5,-739 2458.5,-631 2381.5,-631"/>
<text text-anchor="middle" x="2420" y="-727.8" font-family="Helvetica,sans-Serif" font-size="8.00">Processing</text>
<polyline fill="none" stroke="black" points="2381.5,-719 2458.5,-719 "/>
<text text-anchor="start" x="2389.5" y="-707.8" font-family="Helvetica,sans-Serif" font-size="8.00">None = 0</text>
<text text-anchor="start" x="2389.5" y="-695.8" font-family="Helvetica,sans-Serif" font-size="8.00">CodeToUml</text>
<text text-anchor="start" x="2389.5" y="-683.8" font-family="Helvetica,sans-Serif" font-size="8.00">UmlToCode</text>
<text text-anchor="start" x="2389.5" y="-671.8" font-family="Helvetica,sans-Serif" font-size="8.00">UmlToDiagram</text>
<text text-anchor="start" x="2389.5" y="-659.8" font-family="Helvetica,sans-Serif" font-size="8.00">CodeToDiagram</text>
<polyline fill="none" stroke="black" points="2381.5,-651 2458.5,-651 "/>
<text text-anchor="middle" x="2420" y="-639.8" font-family="Helvetica,sans-Serif" font-size="8.00"> </text>
</g>
<!-- Box_Strings -->
<g id="node12" class="node"><title>Box_Strings</title>
<polygon fill="#fcfcda" stroke="black" points="2476,-607 2476,-763 2794,-763 2794,-607 2476,-607"/>
<text text-anchor="middle" x="2635" y="-751.8" font-family="Helvetica,sans-Serif" font-size="8.00">Strings</text>
<polyline fill="none" stroke="black" points="2476,-743 2794,-743 "/>
<text text-anchor="start" x="2484" y="-731.8" font-family="Helvetica,sans-Serif" font-size="8.00">Attributes:</text>
<text text-anchor="start" x="2484" y="-719.8" font-family="Helvetica,sans-Serif" font-size="8.00">Methods:</text>
<polyline fill="none" stroke="black" points="2476,-711 2794,-711 "/>
<text text-anchor="start" x="2484" y="-699.8" font-family="Helvetica,sans-Serif" font-size="8.00">+ Split (this string s, string separator) : string[] static</text>
<text text-anchor="start" x="2484" y="-687.8" font-family="Helvetica,sans-Serif" font-size="8.00">+ TrimAll (this string s) : string static</text>
<text text-anchor="start" x="2484" y="-675.8" font-family="Helvetica,sans-Serif" font-size="8.00">+ TrimAll (this IEnumerable&lt;string&gt; strings) : IEnumerable&lt;string&gt; static</text>
<text text-anchor="start" x="2484" y="-663.8" font-family="Helvetica,sans-Serif" font-size="8.00">+ ReplaceFirst (this string text, string search, string replace) : string static</text>
<text text-anchor="start" x="2484" y="-651.8" font-family="Helvetica,sans-Serif" font-size="8.00">+ Indentation (this string text) : int static</text>
<text text-anchor="start" x="2484" y="-639.8" font-family="Helvetica,sans-Serif" font-size="8.00">+ IfContains (this string str, string find, string replacement, Action action) : string static</text>
<text text-anchor="start" x="2484" y="-627.8" font-family="Helvetica,sans-Serif" font-size="8.00">+ IfContains (this string str, string find, Action action) : string static</text>
<text text-anchor="start" x="2484" y="-615.8" font-family="Helvetica,sans-Serif" font-size="8.00">+ Clean (this string str) : string static</text>
</g>
<!-- Box_UmlAttribute -->
<g id="node13" class="node"><title>Box_UmlAttribute</title>
<polygon fill="#fcfcda" stroke="black" points="1196.5,-55 1196.5,-187 1381.5,-187 1381.5,-55 1196.5,-55"/>
<text text-anchor="middle" x="1289" y="-175.8" font-family="Helvetica,sans-Serif" font-size="8.00">UmlAttribute</text>
<polyline fill="none" stroke="black" points="1196.5,-167 1381.5,-167 "/>
<text text-anchor="start" x="1204.5" y="-155.8" font-family="Helvetica,sans-Serif" font-size="8.00">Attributes:</text>
<text text-anchor="start" x="1204.5" y="-143.8" font-family="Helvetica,sans-Serif" font-size="8.00">+ type : string</text>
<text text-anchor="start" x="1204.5" y="-131.8" font-family="Helvetica,sans-Serif" font-size="8.00">Methods:</text>
<polyline fill="none" stroke="black" points="1196.5,-123 1381.5,-123 "/>
<text text-anchor="start" x="1204.5" y="-111.8" font-family="Helvetica,sans-Serif" font-size="8.00">+ UmlAttribute (CSharpBlock block)</text>
<text text-anchor="start" x="1204.5" y="-99.8" font-family="Helvetica,sans-Serif" font-size="8.00">+ UmlAttribute (UmlBlock block)</text>
<text text-anchor="start" x="1204.5" y="-87.8" font-family="Helvetica,sans-Serif" font-size="8.00">+ Matches (CSharpBlock block) : bool static</text>
<text text-anchor="start" x="1204.5" y="-75.8" font-family="Helvetica,sans-Serif" font-size="8.00">+ Matches (UmlBlock block) : bool static</text>
<text text-anchor="start" x="1204.5" y="-63.8" font-family="Helvetica,sans-Serif" font-size="8.00">+ ToUmlCode (int padding = 0) : string override</text>
</g>
<!-- Box_UmlClass -->
<g id="node15" class="node"><title>Box_UmlClass</title>
<polygon fill="#fcfcda" stroke="black" points="1398.5,-1 1398.5,-241 1727.5,-241 1727.5,-1 1398.5,-1"/>
<text text-anchor="middle" x="1563" y="-229.8" font-family="Helvetica,sans-Serif" font-size="8.00">UmlClass</text>
<polyline fill="none" stroke="black" points="1398.5,-221 1727.5,-221 "/>
<text text-anchor="start" x="1406.5" y="-209.8" font-family="Helvetica,sans-Serif" font-size="8.00">Attributes:</text>
<text text-anchor="start" x="1406.5" y="-197.8" font-family="Helvetica,sans-Serif" font-size="8.00">+ type : ClassType</text>
<text text-anchor="start" x="1406.5" y="-185.8" font-family="Helvetica,sans-Serif" font-size="8.00">+ bases : string[]</text>
<text text-anchor="start" x="1406.5" y="-173.8" font-family="Helvetica,sans-Serif" font-size="8.00">+ Content : IUmlObject[]</text>
<text text-anchor="start" x="1406.5" y="-161.8" font-family="Helvetica,sans-Serif" font-size="8.00">Methods:</text>
<polyline fill="none" stroke="black" points="1398.5,-153 1727.5,-153 "/>
<text text-anchor="start" x="1406.5" y="-141.8" font-family="Helvetica,sans-Serif" font-size="8.00">+ UmlClass (CSharpBlock block)</text>
<text text-anchor="start" x="1406.5" y="-129.8" font-family="Helvetica,sans-Serif" font-size="8.00">+ UmlClass (UmlBlock block)</text>
<text text-anchor="start" x="1406.5" y="-117.8" font-family="Helvetica,sans-Serif" font-size="8.00">+ ParseContent (IEnumerable&lt;CSharpBlock&gt; blocks) : IEnumerable&lt;IUmlObject&gt;</text>
<text text-anchor="start" x="1406.5" y="-105.8" font-family="Helvetica,sans-Serif" font-size="8.00">+ ParseContent (IEnumerable&lt;UmlBlock&gt; blocks) : IEnumerable&lt;IUmlObject&gt;</text>
<text text-anchor="start" x="1406.5" y="-93.8" font-family="Helvetica,sans-Serif" font-size="8.00">+ Matches (CSharpBlock block) : bool static</text>
<text text-anchor="start" x="1406.5" y="-81.8" font-family="Helvetica,sans-Serif" font-size="8.00">+ Matches (UmlBlock block) : bool static</text>
<text text-anchor="start" x="1406.5" y="-69.8" font-family="Helvetica,sans-Serif" font-size="8.00">+ ToString () : string override</text>
<text text-anchor="start" x="1406.5" y="-57.8" font-family="Helvetica,sans-Serif" font-size="8.00">+ ToUmlCode (int padding = 0) : string override</text>
<text text-anchor="start" x="1406.5" y="-45.8" font-family="Helvetica,sans-Serif" font-size="8.00">+ IsBase (UmlClass obj) : bool</text>
<text text-anchor="start" x="1406.5" y="-33.8" font-family="Helvetica,sans-Serif" font-size="8.00">+ FindBaseClasses (IEnumerable&lt;IUmlObject&gt; _objects) : IEnumerable&lt;IUmlObject&gt;</text>
<text text-anchor="start" x="1406.5" y="-21.8" font-family="Helvetica,sans-Serif" font-size="8.00">+ FindDerivedClasses (IEnumerable&lt;IUmlObject&gt; _objects) : IEnumerable&lt;IUmlObject&gt;</text>
<text text-anchor="start" x="1406.5" y="-9.8" font-family="Helvetica,sans-Serif" font-size="8.00">+ FindRelated (IEnumerable&lt;IUmlObject&gt; objects) : IEnumerable&lt;IUmlObject&gt;</text>
</g>
<!-- Box_ClassType -->
<g id="node16" class="node"><title>Box_ClassType</title>
<polygon fill="#fcfcda" stroke="black" points="2812,-643 2812,-727 2866,-727 2866,-643 2812,-643"/>
<text text-anchor="middle" x="2839" y="-715.8" font-family="Helvetica,sans-Serif" font-size="8.00">ClassType</text>
<polyline fill="none" stroke="black" points="2812,-707 2866,-707 "/>
<text text-anchor="start" x="2820" y="-695.8" font-family="Helvetica,sans-Serif" font-size="8.00">Class</text>
<text text-anchor="start" x="2820" y="-683.8" font-family="Helvetica,sans-Serif" font-size="8.00">Struct</text>
<text text-anchor="start" x="2820" y="-671.8" font-family="Helvetica,sans-Serif" font-size="8.00">Interface</text>
<polyline fill="none" stroke="black" points="2812,-663 2866,-663 "/>
<text text-anchor="middle" x="2839" y="-651.8" font-family="Helvetica,sans-Serif" font-size="8.00"> </text>
</g>
<!-- Box_UmlClassExtensions -->
<g id="node17" class="node"><title>Box_UmlClassExtensions</title>
<polygon fill="#fcfcda" stroke="black" points="2883.5,-649 2883.5,-721 3152.5,-721 3152.5,-649 2883.5,-649"/>
<text text-anchor="middle" x="3018" y="-709.8" font-family="Helvetica,sans-Serif" font-size="8.00">UmlClassExtensions</text>
<polyline fill="none" stroke="black" points="2883.5,-701 3152.5,-701 "/>
<text text-anchor="start" x="2891.5" y="-689.8" font-family="Helvetica,sans-Serif" font-size="8.00">Attributes:</text>
<text text-anchor="start" x="2891.5" y="-677.8" font-family="Helvetica,sans-Serif" font-size="8.00">Methods:</text>
<polyline fill="none" stroke="black" points="2883.5,-669 3152.5,-669 "/>
<text text-anchor="start" x="2891.5" y="-657.8" font-family="Helvetica,sans-Serif" font-size="8.00">+ ToCode (this ClassType type, string before, string after) : string static</text>
</g>
<!-- Box_UmlEnum -->
<g id="node18" class="node"><title>Box_UmlEnum</title>
<polygon fill="#fcfcda" stroke="black" points="1744.5,-43 1744.5,-199 2031.5,-199 2031.5,-43 1744.5,-43"/>
<text text-anchor="middle" x="1888" y="-187.8" font-family="Helvetica,sans-Serif" font-size="8.00">UmlEnum</text>
<polyline fill="none" stroke="black" points="1744.5,-179 2031.5,-179 "/>
<text text-anchor="start" x="1752.5" y="-167.8" font-family="Helvetica,sans-Serif" font-size="8.00">Attributes:</text>
<text text-anchor="start" x="1752.5" y="-155.8" font-family="Helvetica,sans-Serif" font-size="8.00">&#45; values : string[]</text>
<text text-anchor="start" x="1752.5" y="-143.8" font-family="Helvetica,sans-Serif" font-size="8.00">Methods:</text>
<polyline fill="none" stroke="black" points="1744.5,-135 2031.5,-135 "/>
<text text-anchor="start" x="1752.5" y="-123.8" font-family="Helvetica,sans-Serif" font-size="8.00">+ UmlEnum (CSharpBlock block)</text>
<text text-anchor="start" x="1752.5" y="-111.8" font-family="Helvetica,sans-Serif" font-size="8.00">+ UmlEnum (UmlBlock block)</text>
<text text-anchor="start" x="1752.5" y="-99.8" font-family="Helvetica,sans-Serif" font-size="8.00">+ ParseContent (IEnumerable&lt;CSharpBlock&gt; blocks) : IEnumerable&lt;string&gt;</text>
<text text-anchor="start" x="1752.5" y="-87.8" font-family="Helvetica,sans-Serif" font-size="8.00">+ ParseContent (IEnumerable&lt;UmlBlock&gt; blocks) : IEnumerable&lt;string&gt;</text>
<text text-anchor="start" x="1752.5" y="-75.8" font-family="Helvetica,sans-Serif" font-size="8.00">+ Matches (CSharpBlock block) : bool static</text>
<text text-anchor="start" x="1752.5" y="-63.8" font-family="Helvetica,sans-Serif" font-size="8.00">+ Matches (UmlBlock block) : bool static</text>
<text text-anchor="start" x="1752.5" y="-51.8" font-family="Helvetica,sans-Serif" font-size="8.00">+ ToUmlCode (int padding = 0) : string override</text>
</g>
<!-- Box_UmlMethod -->
<g id="node19" class="node"><title>Box_UmlMethod</title>
<polygon fill="#fcfcda" stroke="black" points="2048.5,-49 2048.5,-193 2233.5,-193 2233.5,-49 2048.5,-49"/>
<text text-anchor="middle" x="2141" y="-181.8" font-family="Helvetica,sans-Serif" font-size="8.00">UmlMethod</text>
<polyline fill="none" stroke="black" points="2048.5,-173 2233.5,-173 "/>
<text text-anchor="start" x="2056.5" y="-161.8" font-family="Helvetica,sans-Serif" font-size="8.00">Attributes:</text>
<text text-anchor="start" x="2056.5" y="-149.8" font-family="Helvetica,sans-Serif" font-size="8.00">+ parameters : string[]</text>
<text text-anchor="start" x="2056.5" y="-137.8" font-family="Helvetica,sans-Serif" font-size="8.00">+ returntype : string</text>
<text text-anchor="start" x="2056.5" y="-125.8" font-family="Helvetica,sans-Serif" font-size="8.00">Methods:</text>
<polyline fill="none" stroke="black" points="2048.5,-117 2233.5,-117 "/>
<text text-anchor="start" x="2056.5" y="-105.8" font-family="Helvetica,sans-Serif" font-size="8.00">+ UmlMethod (CSharpBlock block)</text>
<text text-anchor="start" x="2056.5" y="-93.8" font-family="Helvetica,sans-Serif" font-size="8.00">+ UmlMethod (UmlBlock block)</text>
<text text-anchor="start" x="2056.5" y="-81.8" font-family="Helvetica,sans-Serif" font-size="8.00">+ Matches (CSharpBlock block) : bool static</text>
<text text-anchor="start" x="2056.5" y="-69.8" font-family="Helvetica,sans-Serif" font-size="8.00">+ Matches (UmlBlock block) : bool static</text>
<text text-anchor="start" x="2056.5" y="-57.8" font-family="Helvetica,sans-Serif" font-size="8.00">+ ToUmlCode (int padding = 0) : string override</text>
</g>
<!-- Box_UmlObject&#45;&gt;Box_UmlAttribute -->
<g id="edge8" class="edge"><title>Box_UmlObject&#45;&gt;Box_UmlAttribute</title>
<path fill="none" stroke="midnightblue" d="M1632.36,-331.3C1561.42,-317.468 1463.56,-290.907 1390,-242 1368.35,-227.607 1348.86,-207.234 1332.91,-187.3"/>
<polygon fill="none" stroke="midnightblue" points="1631.71,-334.739 1642.19,-333.168 1633.02,-327.862 1631.71,-334.739"/>
</g>
<!-- Box_UmlObject&#45;&gt;Box_UmlClass -->
<g id="edge12" class="edge"><title>Box_UmlObject&#45;&gt;Box_UmlClass</title>
<path fill="none" stroke="midnightblue" d="M1671.13,-270.515C1664.3,-261.073 1657.18,-251.228 1650,-241.296"/>
<polygon fill="none" stroke="midnightblue" points="1668.36,-272.65 1677.05,-278.702 1674.03,-268.548 1668.36,-272.65"/>
</g>
<!-- Box_UmlObject&#45;&gt;Box_UmlEnum -->
<g id="edge14" class="edge"><title>Box_UmlObject&#45;&gt;Box_UmlEnum</title>
<path fill="none" stroke="midnightblue" d="M1779.28,-270.41C1795.88,-247.593 1814.19,-222.435 1830.97,-199.374"/>
<polygon fill="none" stroke="midnightblue" points="1776.3,-268.557 1773.24,-278.702 1781.96,-272.675 1776.3,-268.557"/>
</g>
<!-- Box_UmlObject&#45;&gt;Box_UmlMethod -->
<g id="edge16" class="edge"><title>Box_UmlObject&#45;&gt;Box_UmlMethod</title>
<path fill="none" stroke="midnightblue" d="M1817.58,-328.951C1883.79,-314.232 1972.73,-287.595 2040,-242 2059.37,-228.874 2077.06,-211.019 2092.04,-193.058"/>
<polygon fill="none" stroke="midnightblue" points="1816.6,-325.583 1807.57,-331.125 1818.09,-332.423 1816.6,-325.583"/>
</g>
<!-- Box_IEquatable -->
<g id="node22" class="node"><title>Box_IEquatable</title>
<polygon fill="#ffffff" stroke="black" points="1673.5,-675 1673.5,-695 1776.5,-695 1776.5,-675 1673.5,-675"/>
<text text-anchor="middle" x="1725" y="-683.8" font-family="Helvetica,sans-Serif" font-size="8.00">IEquatable&lt;IUmlObject&gt;</text>
</g>
<!-- Box_IEquatable&#45;&gt;Box_IUmlObject -->
<g id="edge6" class="edge"><title>Box_IEquatable&#45;&gt;Box_IUmlObject</title>
<path fill="none" stroke="midnightblue" d="M1725,-664.481C1725,-639.787 1725,-597.363 1725,-563.063"/>
<polygon fill="none" stroke="midnightblue" points="1721.5,-664.777 1725,-674.777 1728.5,-664.777 1721.5,-664.777"/>
</g>
</g>
</svg>
