<?xml version="1.0" encoding="UTF-8" standalone="no"?>
<!DOCTYPE svg PUBLIC "-//W3C//DTD SVG 1.1//EN"
 "http://www.w3.org/Graphics/SVG/1.1/DTD/svg11.dtd">
<!-- Generated by graphviz version 2.26.3 (20100126.1600)
 -->
<!-- Title: MenuItem Pages: 1 -->
<svg width="336pt" height="624pt"
 viewBox="0.00 0.00 336.00 624.00" xmlns="http://www.w3.org/2000/svg" xmlns:xlink="http://www.w3.org/1999/xlink">
<g id="graph1" class="graph" transform="scale(1 1) rotate(0) translate(4 620)">
<title>MenuItem</title>
<polygon fill="white" stroke="white" points="-4,5 -4,-620 333,-620 333,5 -4,5"/>
<!-- Box_UmlClass -->
<g id="node1" class="node"><title>Box_UmlClass</title>
<polygon fill="#fcfcda" stroke="black" points="-0.5,-1 -0.5,-241 328.5,-241 328.5,-1 -0.5,-1"/>
<text text-anchor="middle" x="164" y="-229.8" font-family="Helvetica,sans-Serif" font-size="8.00">UmlClass</text>
<polyline fill="none" stroke="black" points="-0.5,-221 328.5,-221 "/>
<text text-anchor="start" x="7.5" y="-209.8" font-family="Helvetica,sans-Serif" font-size="8.00">Attributes:</text>
<text text-anchor="start" x="7.5" y="-197.8" font-family="Helvetica,sans-Serif" font-size="8.00">+ type : ClassType</text>
<text text-anchor="start" x="7.5" y="-185.8" font-family="Helvetica,sans-Serif" font-size="8.00">+ bases : string[]</text>
<text text-anchor="start" x="7.5" y="-173.8" font-family="Helvetica,sans-Serif" font-size="8.00">+ Content : IUmlObject[]</text>
<text text-anchor="start" x="7.5" y="-161.8" font-family="Helvetica,sans-Serif" font-size="8.00">Methods:</text>
<polyline fill="none" stroke="black" points="-0.5,-153 328.5,-153 "/>
<text text-anchor="start" x="7.5" y="-141.8" font-family="Helvetica,sans-Serif" font-size="8.00">+ UmlClass (CSharpBlock block)</text>
<text text-anchor="start" x="7.5" y="-129.8" font-family="Helvetica,sans-Serif" font-size="8.00">+ UmlClass (UmlBlock block)</text>
<text text-anchor="start" x="7.5" y="-117.8" font-family="Helvetica,sans-Serif" font-size="8.00">+ ParseContent (IEnumerable&lt;CSharpBlock&gt; blocks) : IEnumerable&lt;IUmlObject&gt;</text>
<text text-anchor="start" x="7.5" y="-105.8" font-family="Helvetica,sans-Serif" font-size="8.00">+ ParseContent (IEnumerable&lt;UmlBlock&gt; blocks) : IEnumerable&lt;IUmlObject&gt;</text>
<text text-anchor="start" x="7.5" y="-93.8" font-family="Helvetica,sans-Serif" font-size="8.00">+ Matches (CSharpBlock block) : bool static</text>
<text text-anchor="start" x="7.5" y="-81.8" font-family="Helvetica,sans-Serif" font-size="8.00">+ Matches (UmlBlock block) : bool static</text>
<text text-anchor="start" x="7.5" y="-69.8" font-family="Helvetica,sans-Serif" font-size="8.00">+ ToString () : string override</text>
<text text-anchor="start" x="7.5" y="-57.8" font-family="Helvetica,sans-Serif" font-size="8.00">+ ToUmlCode (int padding = 0) : string override</text>
<text text-anchor="start" x="7.5" y="-45.8" font-family="Helvetica,sans-Serif" font-size="8.00">+ IsBase (UmlClass obj) : bool</text>
<text text-anchor="start" x="7.5" y="-33.8" font-family="Helvetica,sans-Serif" font-size="8.00">+ FindBaseClasses (IEnumerable&lt;IUmlObject&gt; _objects) : IEnumerable&lt;IUmlObject&gt;</text>
<text text-anchor="start" x="7.5" y="-21.8" font-family="Helvetica,sans-Serif" font-size="8.00">+ FindDerivedClasses (IEnumerable&lt;IUmlObject&gt; _objects) : IEnumerable&lt;IUmlObject&gt;</text>
<text text-anchor="start" x="7.5" y="-9.8" font-family="Helvetica,sans-Serif" font-size="8.00">+ FindRelated (IEnumerable&lt;IUmlObject&gt; objects) : IEnumerable&lt;IUmlObject&gt;</text>
</g>
<!-- Box_UmlObject -->
<g id="node2" class="node"><title>Box_UmlObject</title>
<polygon fill="#fcfcda" stroke="black" points="81.5,-279 81.5,-411 246.5,-411 246.5,-279 81.5,-279"/>
<text text-anchor="middle" x="164" y="-399.8" font-family="Helvetica,sans-Serif" font-size="8.00">UmlObject</text>
<polyline fill="none" stroke="black" points="81.5,-391 246.5,-391 "/>
<text text-anchor="start" x="89.5" y="-379.8" font-family="Helvetica,sans-Serif" font-size="8.00">Attributes:</text>
<text text-anchor="start" x="89.5" y="-367.8" font-family="Helvetica,sans-Serif" font-size="8.00"># name : string</text>
<text text-anchor="start" x="89.5" y="-355.8" font-family="Helvetica,sans-Serif" font-size="8.00">+ Publicity : Publicity</text>
<text text-anchor="start" x="89.5" y="-343.8" font-family="Helvetica,sans-Serif" font-size="8.00">+ Virtuality : Virtuality</text>
<text text-anchor="start" x="89.5" y="-331.8" font-family="Helvetica,sans-Serif" font-size="8.00">+ Name : string</text>
<text text-anchor="start" x="89.5" y="-319.8" font-family="Helvetica,sans-Serif" font-size="8.00">Methods:</text>
<polyline fill="none" stroke="black" points="81.5,-311 246.5,-311 "/>
<text text-anchor="start" x="89.5" y="-299.8" font-family="Helvetica,sans-Serif" font-size="8.00">+ (block.Name) : this (CSharpBlock block)</text>
<text text-anchor="start" x="89.5" y="-287.8" font-family="Helvetica,sans-Serif" font-size="8.00">+ (block.Name) : this (UmlBlock block)</text>
</g>
<!-- Box_UmlObject&#45;&gt;Box_UmlClass -->
<g id="edge2" class="edge"><title>Box_UmlObject&#45;&gt;Box_UmlClass</title>
<path fill="none" stroke="midnightblue" d="M164,-268.507C164,-259.68 164,-250.526 164,-241.296"/>
<polygon fill="none" stroke="midnightblue" points="160.5,-268.702 164,-278.702 167.5,-268.702 160.5,-268.702"/>
</g>
<!-- Box_IUmlObject -->
<g id="node3" class="node"><title>Box_IUmlObject</title>
<polygon fill="#dafcda" stroke="black" points="87,-449 87,-557 241,-557 241,-449 87,-449"/>
<text text-anchor="middle" x="164" y="-545.8" font-family="Helvetica,sans-Serif" font-size="8.00">IUmlObject</text>
<polyline fill="none" stroke="black" points="87,-537 241,-537 "/>
<text text-anchor="start" x="95" y="-525.8" font-family="Helvetica,sans-Serif" font-size="8.00">Attributes:</text>
<text text-anchor="start" x="95" y="-513.8" font-family="Helvetica,sans-Serif" font-size="8.00">+ Publicity : Publicity</text>
<text text-anchor="start" x="95" y="-501.8" font-family="Helvetica,sans-Serif" font-size="8.00">+ Virtuality : Virtuality</text>
<text text-anchor="start" x="95" y="-489.8" font-family="Helvetica,sans-Serif" font-size="8.00">+ Name : string</text>
<text text-anchor="start" x="95" y="-477.8" font-family="Helvetica,sans-Serif" font-size="8.00">Methods:</text>
<polyline fill="none" stroke="black" points="87,-469 241,-469 "/>
<text text-anchor="start" x="95" y="-457.8" font-family="Helvetica,sans-Serif" font-size="8.00">+ ToUmlCode (int padding = 0) : string</text>
</g>
<!-- Box_IUmlObject&#45;&gt;Box_UmlObject -->
<g id="edge4" class="edge"><title>Box_IUmlObject&#45;&gt;Box_UmlObject</title>
<path fill="none" stroke="midnightblue" d="M164,-438.576C164,-429.552 164,-420.266 164,-411.21"/>
<polygon fill="none" stroke="midnightblue" points="160.5,-438.625 164,-448.625 167.5,-438.625 160.5,-438.625"/>
</g>
<!-- Box_IEquatable -->
<g id="node4" class="node"><title>Box_IEquatable</title>
<polygon fill="#ffffff" stroke="black" points="112.5,-595 112.5,-615 215.5,-615 215.5,-595 112.5,-595"/>
<text text-anchor="middle" x="164" y="-603.8" font-family="Helvetica,sans-Serif" font-size="8.00">IEquatable&lt;IUmlObject&gt;</text>
</g>
<!-- Box_IEquatable&#45;&gt;Box_IUmlObject -->
<g id="edge6" class="edge"><title>Box_IEquatable&#45;&gt;Box_IUmlObject</title>
<path fill="none" stroke="midnightblue" d="M164,-584.752C164,-576.743 164,-567.119 164,-557.332"/>
<polygon fill="none" stroke="midnightblue" points="160.5,-584.847 164,-594.847 167.5,-584.847 160.5,-584.847"/>
</g>
</g>
</svg>
