<?xml version="1.0" encoding="UTF-8" standalone="no"?>
<!DOCTYPE svg PUBLIC "-//W3C//DTD SVG 1.1//EN"
 "http://www.w3.org/Graphics/SVG/1.1/DTD/svg11.dtd">
<!-- Generated by graphviz version 2.26.3 (20100126.1600)
 -->
<!-- Title: MenuItem Pages: 1 -->
<svg width="532pt" height="252pt"
 viewBox="0.00 0.00 532.00 252.00" xmlns="http://www.w3.org/2000/svg" xmlns:xlink="http://www.w3.org/1999/xlink">
<g id="graph1" class="graph" transform="scale(1 1) rotate(0) translate(4 248)">
<title>MenuItem</title>
<polygon fill="white" stroke="white" points="-4,5 -4,-248 529,-248 529,5 -4,5"/>
<!-- Box_IParser -->
<g id="node1" class="node"><title>Box_IParser</title>
<polygon fill="#dafcda" stroke="black" points="141.5,-159 141.5,-243 386.5,-243 386.5,-159 141.5,-159"/>
<text text-anchor="middle" x="264" y="-231.8" font-family="Helvetica,sans-Serif" font-size="8.00">IParser</text>
<polyline fill="none" stroke="black" points="141.5,-223 386.5,-223 "/>
<text text-anchor="start" x="149.5" y="-211.8" font-family="Helvetica,sans-Serif" font-size="8.00">Attributes:</text>
<text text-anchor="start" x="149.5" y="-199.8" font-family="Helvetica,sans-Serif" font-size="8.00">Methods:</text>
<polyline fill="none" stroke="black" points="141.5,-191 386.5,-191 "/>
<text text-anchor="start" x="149.5" y="-179.8" font-family="Helvetica,sans-Serif" font-size="8.00">+ Parse (IEnumerable&lt;string&gt; lines) : IEnumerable&lt;IUmlObject&gt;</text>
<text text-anchor="start" x="149.5" y="-167.8" font-family="Helvetica,sans-Serif" font-size="8.00">+ Parse (string filename) : IEnumerable&lt;IUmlObject&gt;</text>
</g>
<!-- Box_CSharpParser -->
<g id="node2" class="node"><title>Box_CSharpParser</title>
<polygon fill="#fcfcda" stroke="black" points="-0.5,-7 -0.5,-115 258.5,-115 258.5,-7 -0.5,-7"/>
<text text-anchor="middle" x="129" y="-103.8" font-family="Helvetica,sans-Serif" font-size="8.00">CSharpParser</text>
<polyline fill="none" stroke="black" points="-0.5,-95 258.5,-95 "/>
<text text-anchor="start" x="7.5" y="-83.8" font-family="Helvetica,sans-Serif" font-size="8.00">Attributes:</text>
<text text-anchor="start" x="7.5" y="-71.8" font-family="Helvetica,sans-Serif" font-size="8.00">Methods:</text>
<polyline fill="none" stroke="black" points="-0.5,-63 258.5,-63 "/>
<text text-anchor="start" x="7.5" y="-51.8" font-family="Helvetica,sans-Serif" font-size="8.00">+ CSharpParser ()</text>
<text text-anchor="start" x="7.5" y="-39.8" font-family="Helvetica,sans-Serif" font-size="8.00">+ Parse (char[] chars, ref int i) : CSharpBlock[]</text>
<text text-anchor="start" x="7.5" y="-27.8" font-family="Helvetica,sans-Serif" font-size="8.00">+ Parse (IEnumerable&lt;string&gt; lines) : IEnumerable&lt;IUmlObject&gt;</text>
<text text-anchor="start" x="7.5" y="-15.8" font-family="Helvetica,sans-Serif" font-size="8.00">&#45; StripComments (IEnumerable&lt;string&gt; lines) : IEnumerable&lt;string&gt;</text>
</g>
<!-- Box_IParser&#45;&gt;Box_CSharpParser -->
<g id="edge2" class="edge"><title>Box_IParser&#45;&gt;Box_CSharpParser</title>
<path fill="none" stroke="midnightblue" d="M216.513,-151.754C205.103,-139.921 192.854,-127.219 181.241,-115.176"/>
<polygon fill="none" stroke="midnightblue" points="214.035,-154.226 223.496,-158.995 219.074,-149.367 214.035,-154.226"/>
</g>
<!-- Box_UmlParser -->
<g id="node3" class="node"><title>Box_UmlParser</title>
<polygon fill="#fcfcda" stroke="black" points="275.5,-1 275.5,-121 524.5,-121 524.5,-1 275.5,-1"/>
<text text-anchor="middle" x="400" y="-109.8" font-family="Helvetica,sans-Serif" font-size="8.00">UmlParser</text>
<polyline fill="none" stroke="black" points="275.5,-101 524.5,-101 "/>
<text text-anchor="start" x="283.5" y="-89.8" font-family="Helvetica,sans-Serif" font-size="8.00">Attributes:</text>
<text text-anchor="start" x="283.5" y="-77.8" font-family="Helvetica,sans-Serif" font-size="8.00">Methods:</text>
<polyline fill="none" stroke="black" points="275.5,-69 524.5,-69 "/>
<text text-anchor="start" x="283.5" y="-57.8" font-family="Helvetica,sans-Serif" font-size="8.00">+ UmlParser ()</text>
<text text-anchor="start" x="283.5" y="-45.8" font-family="Helvetica,sans-Serif" font-size="8.00">&#45; ParseBlocks (string[] lines, ref int i, int parentIndent) : UmlBlock[]</text>
<text text-anchor="start" x="283.5" y="-33.8" font-family="Helvetica,sans-Serif" font-size="8.00">+ Parse (IEnumerable&lt;string&gt; lines) : IEnumerable&lt;IUmlObject&gt;</text>
<text text-anchor="start" x="283.5" y="-21.8" font-family="Helvetica,sans-Serif" font-size="8.00">&#45; FilterIgnoreLines (string line) : bool</text>
<text text-anchor="start" x="283.5" y="-9.8" font-family="Helvetica,sans-Serif" font-size="8.00">+ Parse (string filename) : IEnumerable&lt;IUmlObject&gt;</text>
</g>
<!-- Box_IParser&#45;&gt;Box_UmlParser -->
<g id="edge4" class="edge"><title>Box_IParser&#45;&gt;Box_UmlParser</title>
<path fill="none" stroke="midnightblue" d="M312.003,-151.586C321.582,-141.724 331.743,-131.264 341.627,-121.09"/>
<polygon fill="none" stroke="midnightblue" points="309.262,-149.384 304.804,-158.995 314.283,-154.261 309.262,-149.384"/>
</g>
</g>
</svg>
