<?xml version="1.0" encoding="UTF-8" standalone="no"?>
<!DOCTYPE svg PUBLIC "-//W3C//DTD SVG 1.1//EN"
 "http://www.w3.org/Graphics/SVG/1.1/DTD/svg11.dtd">
<!-- Generated by graphviz version 2.26.3 (20100126.1600)
 -->
<!-- Title: MenuItem Pages: 1 -->
<svg width="294pt" height="540pt"
 viewBox="0.00 0.00 294.00 540.00" xmlns="http://www.w3.org/2000/svg" xmlns:xlink="http://www.w3.org/1999/xlink">
<g id="graph1" class="graph" transform="scale(1 1) rotate(0) translate(4 536)">
<title>MenuItem</title>
<polygon fill="white" stroke="white" points="-4,5 -4,-536 291,-536 291,5 -4,5"/>
<!-- Box_UmlEnum -->
<g id="node1" class="node"><title>Box_UmlEnum</title>
<polygon fill="#fcfcda" stroke="black" points="-0.5,-1 -0.5,-157 286.5,-157 286.5,-1 -0.5,-1"/>
<text text-anchor="middle" x="143" y="-145.8" font-family="Helvetica,sans-Serif" font-size="8.00">UmlEnum</text>
<polyline fill="none" stroke="black" points="-0.5,-137 286.5,-137 "/>
<text text-anchor="start" x="7.5" y="-125.8" font-family="Helvetica,sans-Serif" font-size="8.00">Attributes:</text>
<text text-anchor="start" x="7.5" y="-113.8" font-family="Helvetica,sans-Serif" font-size="8.00">&#45; values : string[]</text>
<text text-anchor="start" x="7.5" y="-101.8" font-family="Helvetica,sans-Serif" font-size="8.00">Methods:</text>
<polyline fill="none" stroke="black" points="-0.5,-93 286.5,-93 "/>
<text text-anchor="start" x="7.5" y="-81.8" font-family="Helvetica,sans-Serif" font-size="8.00">+ UmlEnum (CSharpBlock block)</text>
<text text-anchor="start" x="7.5" y="-69.8" font-family="Helvetica,sans-Serif" font-size="8.00">+ UmlEnum (UmlBlock block)</text>
<text text-anchor="start" x="7.5" y="-57.8" font-family="Helvetica,sans-Serif" font-size="8.00">+ ParseContent (IEnumerable&lt;CSharpBlock&gt; blocks) : IEnumerable&lt;string&gt;</text>
<text text-anchor="start" x="7.5" y="-45.8" font-family="Helvetica,sans-Serif" font-size="8.00">+ ParseContent (IEnumerable&lt;UmlBlock&gt; blocks) : IEnumerable&lt;string&gt;</text>
<text text-anchor="start" x="7.5" y="-33.8" font-family="Helvetica,sans-Serif" font-size="8.00">+ Matches (CSharpBlock block) : bool static</text>
<text text-anchor="start" x="7.5" y="-21.8" font-family="Helvetica,sans-Serif" font-size="8.00">+ Matches (UmlBlock block) : bool static</text>
<text text-anchor="start" x="7.5" y="-9.8" font-family="Helvetica,sans-Serif" font-size="8.00">+ ToUmlCode (int padding = 0) : string override</text>
</g>
<!-- Box_UmlObject -->
<g id="node2" class="node"><title>Box_UmlObject</title>
<polygon fill="#fcfcda" stroke="black" points="60.5,-195 60.5,-327 225.5,-327 225.5,-195 60.5,-195"/>
<text text-anchor="middle" x="143" y="-315.8" font-family="Helvetica,sans-Serif" font-size="8.00">UmlObject</text>
<polyline fill="none" stroke="black" points="60.5,-307 225.5,-307 "/>
<text text-anchor="start" x="68.5" y="-295.8" font-family="Helvetica,sans-Serif" font-size="8.00">Attributes:</text>
<text text-anchor="start" x="68.5" y="-283.8" font-family="Helvetica,sans-Serif" font-size="8.00"># name : string</text>
<text text-anchor="start" x="68.5" y="-271.8" font-family="Helvetica,sans-Serif" font-size="8.00">+ Publicity : Publicity</text>
<text text-anchor="start" x="68.5" y="-259.8" font-family="Helvetica,sans-Serif" font-size="8.00">+ Virtuality : Virtuality</text>
<text text-anchor="start" x="68.5" y="-247.8" font-family="Helvetica,sans-Serif" font-size="8.00">+ Name : string</text>
<text text-anchor="start" x="68.5" y="-235.8" font-family="Helvetica,sans-Serif" font-size="8.00">Methods:</text>
<polyline fill="none" stroke="black" points="60.5,-227 225.5,-227 "/>
<text text-anchor="start" x="68.5" y="-215.8" font-family="Helvetica,sans-Serif" font-size="8.00">+ (block.Name) : this (CSharpBlock block)</text>
<text text-anchor="start" x="68.5" y="-203.8" font-family="Helvetica,sans-Serif" font-size="8.00">+ (block.Name) : this (UmlBlock block)</text>
</g>
<!-- Box_UmlObject&#45;&gt;Box_UmlEnum -->
<g id="edge2" class="edge"><title>Box_UmlObject&#45;&gt;Box_UmlEnum</title>
<path fill="none" stroke="midnightblue" d="M143,-184.65C143,-175.586 143,-166.322 143,-157.232"/>
<polygon fill="none" stroke="midnightblue" points="139.5,-184.779 143,-194.779 146.5,-184.779 139.5,-184.779"/>
</g>
<!-- Box_IUmlObject -->
<g id="node3" class="node"><title>Box_IUmlObject</title>
<polygon fill="#dafcda" stroke="black" points="66,-365 66,-473 220,-473 220,-365 66,-365"/>
<text text-anchor="middle" x="143" y="-461.8" font-family="Helvetica,sans-Serif" font-size="8.00">IUmlObject</text>
<polyline fill="none" stroke="black" points="66,-453 220,-453 "/>
<text text-anchor="start" x="74" y="-441.8" font-family="Helvetica,sans-Serif" font-size="8.00">Attributes:</text>
<text text-anchor="start" x="74" y="-429.8" font-family="Helvetica,sans-Serif" font-size="8.00">+ Publicity : Publicity</text>
<text text-anchor="start" x="74" y="-417.8" font-family="Helvetica,sans-Serif" font-size="8.00">+ Virtuality : Virtuality</text>
<text text-anchor="start" x="74" y="-405.8" font-family="Helvetica,sans-Serif" font-size="8.00">+ Name : string</text>
<text text-anchor="start" x="74" y="-393.8" font-family="Helvetica,sans-Serif" font-size="8.00">Methods:</text>
<polyline fill="none" stroke="black" points="66,-385 220,-385 "/>
<text text-anchor="start" x="74" y="-373.8" font-family="Helvetica,sans-Serif" font-size="8.00">+ ToUmlCode (int padding = 0) : string</text>
</g>
<!-- Box_IUmlObject&#45;&gt;Box_UmlObject -->
<g id="edge4" class="edge"><title>Box_IUmlObject&#45;&gt;Box_UmlObject</title>
<path fill="none" stroke="midnightblue" d="M143,-354.576C143,-345.552 143,-336.266 143,-327.21"/>
<polygon fill="none" stroke="midnightblue" points="139.5,-354.625 143,-364.625 146.5,-354.625 139.5,-354.625"/>
</g>
<!-- Box_IEquatable -->
<g id="node4" class="node"><title>Box_IEquatable</title>
<polygon fill="#ffffff" stroke="black" points="91.5,-511 91.5,-531 194.5,-531 194.5,-511 91.5,-511"/>
<text text-anchor="middle" x="143" y="-519.8" font-family="Helvetica,sans-Serif" font-size="8.00">IEquatable&lt;IUmlObject&gt;</text>
</g>
<!-- Box_IEquatable&#45;&gt;Box_IUmlObject -->
<g id="edge6" class="edge"><title>Box_IEquatable&#45;&gt;Box_IUmlObject</title>
<path fill="none" stroke="midnightblue" d="M143,-500.752C143,-492.743 143,-483.119 143,-473.332"/>
<polygon fill="none" stroke="midnightblue" points="139.5,-500.847 143,-510.847 146.5,-500.847 139.5,-500.847"/>
</g>
</g>
</svg>
