<?xml version="1.0" encoding="UTF-8" standalone="no"?>
<!DOCTYPE svg PUBLIC "-//W3C//DTD SVG 1.1//EN"
 "http://www.w3.org/Graphics/SVG/1.1/DTD/svg11.dtd">
<!-- Generated by graphviz version 2.26.3 (20100126.1600)
 -->
<!-- Title: MenuItem Pages: 1 -->
<svg width="192pt" height="516pt"
 viewBox="0.00 0.00 192.00 516.00" xmlns="http://www.w3.org/2000/svg" xmlns:xlink="http://www.w3.org/1999/xlink">
<g id="graph1" class="graph" transform="scale(1 1) rotate(0) translate(4 512)">
<title>MenuItem</title>
<polygon fill="white" stroke="white" points="-4,5 -4,-512 189,-512 189,5 -4,5"/>
<!-- Box_UmlAttribute -->
<g id="node1" class="node"><title>Box_UmlAttribute</title>
<polygon fill="#fcfcda" stroke="black" points="-0.5,-1 -0.5,-133 184.5,-133 184.5,-1 -0.5,-1"/>
<text text-anchor="middle" x="92" y="-121.8" font-family="Helvetica,sans-Serif" font-size="8.00">UmlAttribute</text>
<polyline fill="none" stroke="black" points="-0.5,-113 184.5,-113 "/>
<text text-anchor="start" x="7.5" y="-101.8" font-family="Helvetica,sans-Serif" font-size="8.00">Attributes:</text>
<text text-anchor="start" x="7.5" y="-89.8" font-family="Helvetica,sans-Serif" font-size="8.00">+ type : string</text>
<text text-anchor="start" x="7.5" y="-77.8" font-family="Helvetica,sans-Serif" font-size="8.00">Methods:</text>
<polyline fill="none" stroke="black" points="-0.5,-69 184.5,-69 "/>
<text text-anchor="start" x="7.5" y="-57.8" font-family="Helvetica,sans-Serif" font-size="8.00">+ UmlAttribute (CSharpBlock block)</text>
<text text-anchor="start" x="7.5" y="-45.8" font-family="Helvetica,sans-Serif" font-size="8.00">+ UmlAttribute (UmlBlock block)</text>
<text text-anchor="start" x="7.5" y="-33.8" font-family="Helvetica,sans-Serif" font-size="8.00">+ Matches (CSharpBlock block) : bool static</text>
<text text-anchor="start" x="7.5" y="-21.8" font-family="Helvetica,sans-Serif" font-size="8.00">+ Matches (UmlBlock block) : bool static</text>
<text text-anchor="start" x="7.5" y="-9.8" font-family="Helvetica,sans-Serif" font-size="8.00">+ ToUmlCode (int padding = 0) : string override</text>
</g>
<!-- Box_UmlObject -->
<g id="node2" class="node"><title>Box_UmlObject</title>
<polygon fill="#fcfcda" stroke="black" points="9.5,-171 9.5,-303 174.5,-303 174.5,-171 9.5,-171"/>
<text text-anchor="middle" x="92" y="-291.8" font-family="Helvetica,sans-Serif" font-size="8.00">UmlObject</text>
<polyline fill="none" stroke="black" points="9.5,-283 174.5,-283 "/>
<text text-anchor="start" x="17.5" y="-271.8" font-family="Helvetica,sans-Serif" font-size="8.00">Attributes:</text>
<text text-anchor="start" x="17.5" y="-259.8" font-family="Helvetica,sans-Serif" font-size="8.00"># name : string</text>
<text text-anchor="start" x="17.5" y="-247.8" font-family="Helvetica,sans-Serif" font-size="8.00">+ Publicity : Publicity</text>
<text text-anchor="start" x="17.5" y="-235.8" font-family="Helvetica,sans-Serif" font-size="8.00">+ Virtuality : Virtuality</text>
<text text-anchor="start" x="17.5" y="-223.8" font-family="Helvetica,sans-Serif" font-size="8.00">+ Name : string</text>
<text text-anchor="start" x="17.5" y="-211.8" font-family="Helvetica,sans-Serif" font-size="8.00">Methods:</text>
<polyline fill="none" stroke="black" points="9.5,-203 174.5,-203 "/>
<text text-anchor="start" x="17.5" y="-191.8" font-family="Helvetica,sans-Serif" font-size="8.00">+ (block.Name) : this (CSharpBlock block)</text>
<text text-anchor="start" x="17.5" y="-179.8" font-family="Helvetica,sans-Serif" font-size="8.00">+ (block.Name) : this (UmlBlock block)</text>
</g>
<!-- Box_UmlObject&#45;&gt;Box_UmlAttribute -->
<g id="edge2" class="edge"><title>Box_UmlObject&#45;&gt;Box_UmlAttribute</title>
<path fill="none" stroke="midnightblue" d="M92,-160.513C92,-151.342 92,-142.037 92,-133.033"/>
<polygon fill="none" stroke="midnightblue" points="88.5001,-160.787 92,-170.787 95.5001,-160.787 88.5001,-160.787"/>
</g>
<!-- Box_IUmlObject -->
<g id="node3" class="node"><title>Box_IUmlObject</title>
<polygon fill="#dafcda" stroke="black" points="15,-341 15,-449 169,-449 169,-341 15,-341"/>
<text text-anchor="middle" x="92" y="-437.8" font-family="Helvetica,sans-Serif" font-size="8.00">IUmlObject</text>
<polyline fill="none" stroke="black" points="15,-429 169,-429 "/>
<text text-anchor="start" x="23" y="-417.8" font-family="Helvetica,sans-Serif" font-size="8.00">Attributes:</text>
<text text-anchor="start" x="23" y="-405.8" font-family="Helvetica,sans-Serif" font-size="8.00">+ Publicity : Publicity</text>
<text text-anchor="start" x="23" y="-393.8" font-family="Helvetica,sans-Serif" font-size="8.00">+ Virtuality : Virtuality</text>
<text text-anchor="start" x="23" y="-381.8" font-family="Helvetica,sans-Serif" font-size="8.00">+ Name : string</text>
<text text-anchor="start" x="23" y="-369.8" font-family="Helvetica,sans-Serif" font-size="8.00">Methods:</text>
<polyline fill="none" stroke="black" points="15,-361 169,-361 "/>
<text text-anchor="start" x="23" y="-349.8" font-family="Helvetica,sans-Serif" font-size="8.00">+ ToUmlCode (int padding = 0) : string</text>
</g>
<!-- Box_IUmlObject&#45;&gt;Box_UmlObject -->
<g id="edge4" class="edge"><title>Box_IUmlObject&#45;&gt;Box_UmlObject</title>
<path fill="none" stroke="midnightblue" d="M92,-330.576C92,-321.552 92,-312.266 92,-303.21"/>
<polygon fill="none" stroke="midnightblue" points="88.5001,-330.625 92,-340.625 95.5001,-330.625 88.5001,-330.625"/>
</g>
<!-- Box_IEquatable -->
<g id="node4" class="node"><title>Box_IEquatable</title>
<polygon fill="#ffffff" stroke="black" points="40.5,-487 40.5,-507 143.5,-507 143.5,-487 40.5,-487"/>
<text text-anchor="middle" x="92" y="-495.8" font-family="Helvetica,sans-Serif" font-size="8.00">IEquatable&lt;IUmlObject&gt;</text>
</g>
<!-- Box_IEquatable&#45;&gt;Box_IUmlObject -->
<g id="edge6" class="edge"><title>Box_IEquatable&#45;&gt;Box_IUmlObject</title>
<path fill="none" stroke="midnightblue" d="M92,-476.752C92,-468.743 92,-459.119 92,-449.332"/>
<polygon fill="none" stroke="midnightblue" points="88.5001,-476.847 92,-486.847 95.5001,-476.847 88.5001,-476.847"/>
</g>
</g>
</svg>
