<?xml version="1.0" encoding="UTF-8" standalone="no"?>
<!DOCTYPE svg PUBLIC "-//W3C//DTD SVG 1.1//EN"
 "http://www.w3.org/Graphics/SVG/1.1/DTD/svg11.dtd">
<!-- Generated by graphviz version 2.26.3 (20100126.1600)
 -->
<!-- Title: MenuItem Pages: 1 -->
<svg width="1044pt" height="624pt"
 viewBox="0.00 0.00 1044.00 624.00" xmlns="http://www.w3.org/2000/svg" xmlns:xlink="http://www.w3.org/1999/xlink">
<g id="graph1" class="graph" transform="scale(1 1) rotate(0) translate(4 620)">
<title>MenuItem</title>
<polygon fill="white" stroke="white" points="-4,5 -4,-620 1041,-620 1041,5 -4,5"/>
<!-- Box_IUmlObject -->
<g id="node1" class="node"><title>Box_IUmlObject</title>
<polygon fill="#dafcda" stroke="black" points="451,-449 451,-557 605,-557 605,-449 451,-449"/>
<text text-anchor="middle" x="528" y="-545.8" font-family="Helvetica,sans-Serif" font-size="8.00">IUmlObject</text>
<polyline fill="none" stroke="black" points="451,-537 605,-537 "/>
<text text-anchor="start" x="459" y="-525.8" font-family="Helvetica,sans-Serif" font-size="8.00">Attributes:</text>
<text text-anchor="start" x="459" y="-513.8" font-family="Helvetica,sans-Serif" font-size="8.00">+ Publicity : Publicity</text>
<text text-anchor="start" x="459" y="-501.8" font-family="Helvetica,sans-Serif" font-size="8.00">+ Virtuality : Virtuality</text>
<text text-anchor="start" x="459" y="-489.8" font-family="Helvetica,sans-Serif" font-size="8.00">+ Name : string</text>
<text text-anchor="start" x="459" y="-477.8" font-family="Helvetica,sans-Serif" font-size="8.00">Methods:</text>
<polyline fill="none" stroke="black" points="451,-469 605,-469 "/>
<text text-anchor="start" x="459" y="-457.8" font-family="Helvetica,sans-Serif" font-size="8.00">+ ToUmlCode (int padding = 0) : string</text>
</g>
<!-- Box_UmlObject -->
<g id="node2" class="node"><title>Box_UmlObject</title>
<polygon fill="#fcfcda" stroke="black" points="445.5,-279 445.5,-411 610.5,-411 610.5,-279 445.5,-279"/>
<text text-anchor="middle" x="528" y="-399.8" font-family="Helvetica,sans-Serif" font-size="8.00">UmlObject</text>
<polyline fill="none" stroke="black" points="445.5,-391 610.5,-391 "/>
<text text-anchor="start" x="453.5" y="-379.8" font-family="Helvetica,sans-Serif" font-size="8.00">Attributes:</text>
<text text-anchor="start" x="453.5" y="-367.8" font-family="Helvetica,sans-Serif" font-size="8.00"># name : string</text>
<text text-anchor="start" x="453.5" y="-355.8" font-family="Helvetica,sans-Serif" font-size="8.00">+ Publicity : Publicity</text>
<text text-anchor="start" x="453.5" y="-343.8" font-family="Helvetica,sans-Serif" font-size="8.00">+ Virtuality : Virtuality</text>
<text text-anchor="start" x="453.5" y="-331.8" font-family="Helvetica,sans-Serif" font-size="8.00">+ Name : string</text>
<text text-anchor="start" x="453.5" y="-319.8" font-family="Helvetica,sans-Serif" font-size="8.00">Methods:</text>
<polyline fill="none" stroke="black" points="445.5,-311 610.5,-311 "/>
<text text-anchor="start" x="453.5" y="-299.8" font-family="Helvetica,sans-Serif" font-size="8.00">+ (block.Name) : this (CSharpBlock block)</text>
<text text-anchor="start" x="453.5" y="-287.8" font-family="Helvetica,sans-Serif" font-size="8.00">+ (block.Name) : this (UmlBlock block)</text>
</g>
<!-- Box_IUmlObject&#45;&gt;Box_UmlObject -->
<g id="edge4" class="edge"><title>Box_IUmlObject&#45;&gt;Box_UmlObject</title>
<path fill="none" stroke="midnightblue" d="M528,-438.576C528,-429.552 528,-420.266 528,-411.21"/>
<polygon fill="none" stroke="midnightblue" points="524.5,-438.625 528,-448.625 531.5,-438.625 524.5,-438.625"/>
</g>
<!-- Box_UmlAttribute -->
<g id="node3" class="node"><title>Box_UmlAttribute</title>
<polygon fill="#fcfcda" stroke="black" points="-0.5,-55 -0.5,-187 184.5,-187 184.5,-55 -0.5,-55"/>
<text text-anchor="middle" x="92" y="-175.8" font-family="Helvetica,sans-Serif" font-size="8.00">UmlAttribute</text>
<polyline fill="none" stroke="black" points="-0.5,-167 184.5,-167 "/>
<text text-anchor="start" x="7.5" y="-155.8" font-family="Helvetica,sans-Serif" font-size="8.00">Attributes:</text>
<text text-anchor="start" x="7.5" y="-143.8" font-family="Helvetica,sans-Serif" font-size="8.00">+ type : string</text>
<text text-anchor="start" x="7.5" y="-131.8" font-family="Helvetica,sans-Serif" font-size="8.00">Methods:</text>
<polyline fill="none" stroke="black" points="-0.5,-123 184.5,-123 "/>
<text text-anchor="start" x="7.5" y="-111.8" font-family="Helvetica,sans-Serif" font-size="8.00">+ UmlAttribute (CSharpBlock block)</text>
<text text-anchor="start" x="7.5" y="-99.8" font-family="Helvetica,sans-Serif" font-size="8.00">+ UmlAttribute (UmlBlock block)</text>
<text text-anchor="start" x="7.5" y="-87.8" font-family="Helvetica,sans-Serif" font-size="8.00">+ Matches (CSharpBlock block) : bool static</text>
<text text-anchor="start" x="7.5" y="-75.8" font-family="Helvetica,sans-Serif" font-size="8.00">+ Matches (UmlBlock block) : bool static</text>
<text text-anchor="start" x="7.5" y="-63.8" font-family="Helvetica,sans-Serif" font-size="8.00">+ ToUmlCode (int padding = 0) : string override</text>
</g>
<!-- Box_UmlObject&#45;&gt;Box_UmlAttribute -->
<g id="edge6" class="edge"><title>Box_UmlObject&#45;&gt;Box_UmlAttribute</title>
<path fill="none" stroke="midnightblue" d="M435.363,-331.3C364.418,-317.468 266.557,-290.907 193,-242 171.353,-227.607 151.863,-207.234 135.911,-187.3"/>
<polygon fill="none" stroke="midnightblue" points="434.712,-334.739 445.19,-333.168 436.019,-327.862 434.712,-334.739"/>
</g>
<!-- Box_UmlClass -->
<g id="node4" class="node"><title>Box_UmlClass</title>
<polygon fill="#fcfcda" stroke="black" points="201.5,-1 201.5,-241 530.5,-241 530.5,-1 201.5,-1"/>
<text text-anchor="middle" x="366" y="-229.8" font-family="Helvetica,sans-Serif" font-size="8.00">UmlClass</text>
<polyline fill="none" stroke="black" points="201.5,-221 530.5,-221 "/>
<text text-anchor="start" x="209.5" y="-209.8" font-family="Helvetica,sans-Serif" font-size="8.00">Attributes:</text>
<text text-anchor="start" x="209.5" y="-197.8" font-family="Helvetica,sans-Serif" font-size="8.00">+ type : ClassType</text>
<text text-anchor="start" x="209.5" y="-185.8" font-family="Helvetica,sans-Serif" font-size="8.00">+ bases : string[]</text>
<text text-anchor="start" x="209.5" y="-173.8" font-family="Helvetica,sans-Serif" font-size="8.00">+ Content : IUmlObject[]</text>
<text text-anchor="start" x="209.5" y="-161.8" font-family="Helvetica,sans-Serif" font-size="8.00">Methods:</text>
<polyline fill="none" stroke="black" points="201.5,-153 530.5,-153 "/>
<text text-anchor="start" x="209.5" y="-141.8" font-family="Helvetica,sans-Serif" font-size="8.00">+ UmlClass (CSharpBlock block)</text>
<text text-anchor="start" x="209.5" y="-129.8" font-family="Helvetica,sans-Serif" font-size="8.00">+ UmlClass (UmlBlock block)</text>
<text text-anchor="start" x="209.5" y="-117.8" font-family="Helvetica,sans-Serif" font-size="8.00">+ ParseContent (IEnumerable&lt;CSharpBlock&gt; blocks) : IEnumerable&lt;IUmlObject&gt;</text>
<text text-anchor="start" x="209.5" y="-105.8" font-family="Helvetica,sans-Serif" font-size="8.00">+ ParseContent (IEnumerable&lt;UmlBlock&gt; blocks) : IEnumerable&lt;IUmlObject&gt;</text>
<text text-anchor="start" x="209.5" y="-93.8" font-family="Helvetica,sans-Serif" font-size="8.00">+ Matches (CSharpBlock block) : bool static</text>
<text text-anchor="start" x="209.5" y="-81.8" font-family="Helvetica,sans-Serif" font-size="8.00">+ Matches (UmlBlock block) : bool static</text>
<text text-anchor="start" x="209.5" y="-69.8" font-family="Helvetica,sans-Serif" font-size="8.00">+ ToString () : string override</text>
<text text-anchor="start" x="209.5" y="-57.8" font-family="Helvetica,sans-Serif" font-size="8.00">+ ToUmlCode (int padding = 0) : string override</text>
<text text-anchor="start" x="209.5" y="-45.8" font-family="Helvetica,sans-Serif" font-size="8.00">+ IsBase (UmlClass obj) : bool</text>
<text text-anchor="start" x="209.5" y="-33.8" font-family="Helvetica,sans-Serif" font-size="8.00">+ FindBaseClasses (IEnumerable&lt;IUmlObject&gt; _objects) : IEnumerable&lt;IUmlObject&gt;</text>
<text text-anchor="start" x="209.5" y="-21.8" font-family="Helvetica,sans-Serif" font-size="8.00">+ FindDerivedClasses (IEnumerable&lt;IUmlObject&gt; _objects) : IEnumerable&lt;IUmlObject&gt;</text>
<text text-anchor="start" x="209.5" y="-9.8" font-family="Helvetica,sans-Serif" font-size="8.00">+ FindRelated (IEnumerable&lt;IUmlObject&gt; objects) : IEnumerable&lt;IUmlObject&gt;</text>
</g>
<!-- Box_UmlObject&#45;&gt;Box_UmlClass -->
<g id="edge8" class="edge"><title>Box_UmlObject&#45;&gt;Box_UmlClass</title>
<path fill="none" stroke="midnightblue" d="M474.132,-270.515C467.303,-261.073 460.183,-251.228 453,-241.296"/>
<polygon fill="none" stroke="midnightblue" points="471.356,-272.65 480.052,-278.702 477.028,-268.548 471.356,-272.65"/>
</g>
<!-- Box_UmlEnum -->
<g id="node5" class="node"><title>Box_UmlEnum</title>
<polygon fill="#fcfcda" stroke="black" points="547.5,-43 547.5,-199 834.5,-199 834.5,-43 547.5,-43"/>
<text text-anchor="middle" x="691" y="-187.8" font-family="Helvetica,sans-Serif" font-size="8.00">UmlEnum</text>
<polyline fill="none" stroke="black" points="547.5,-179 834.5,-179 "/>
<text text-anchor="start" x="555.5" y="-167.8" font-family="Helvetica,sans-Serif" font-size="8.00">Attributes:</text>
<text text-anchor="start" x="555.5" y="-155.8" font-family="Helvetica,sans-Serif" font-size="8.00">&#45; values : string[]</text>
<text text-anchor="start" x="555.5" y="-143.8" font-family="Helvetica,sans-Serif" font-size="8.00">Methods:</text>
<polyline fill="none" stroke="black" points="547.5,-135 834.5,-135 "/>
<text text-anchor="start" x="555.5" y="-123.8" font-family="Helvetica,sans-Serif" font-size="8.00">+ UmlEnum (CSharpBlock block)</text>
<text text-anchor="start" x="555.5" y="-111.8" font-family="Helvetica,sans-Serif" font-size="8.00">+ UmlEnum (UmlBlock block)</text>
<text text-anchor="start" x="555.5" y="-99.8" font-family="Helvetica,sans-Serif" font-size="8.00">+ ParseContent (IEnumerable&lt;CSharpBlock&gt; blocks) : IEnumerable&lt;string&gt;</text>
<text text-anchor="start" x="555.5" y="-87.8" font-family="Helvetica,sans-Serif" font-size="8.00">+ ParseContent (IEnumerable&lt;UmlBlock&gt; blocks) : IEnumerable&lt;string&gt;</text>
<text text-anchor="start" x="555.5" y="-75.8" font-family="Helvetica,sans-Serif" font-size="8.00">+ Matches (CSharpBlock block) : bool static</text>
<text text-anchor="start" x="555.5" y="-63.8" font-family="Helvetica,sans-Serif" font-size="8.00">+ Matches (UmlBlock block) : bool static</text>
<text text-anchor="start" x="555.5" y="-51.8" font-family="Helvetica,sans-Serif" font-size="8.00">+ ToUmlCode (int padding = 0) : string override</text>
</g>
<!-- Box_UmlObject&#45;&gt;Box_UmlEnum -->
<g id="edge10" class="edge"><title>Box_UmlObject&#45;&gt;Box_UmlEnum</title>
<path fill="none" stroke="midnightblue" d="M582.278,-270.41C598.881,-247.593 617.188,-222.435 633.969,-199.374"/>
<polygon fill="none" stroke="midnightblue" points="579.298,-268.557 576.244,-278.702 584.958,-272.675 579.298,-268.557"/>
</g>
<!-- Box_UmlMethod -->
<g id="node6" class="node"><title>Box_UmlMethod</title>
<polygon fill="#fcfcda" stroke="black" points="851.5,-49 851.5,-193 1036.5,-193 1036.5,-49 851.5,-49"/>
<text text-anchor="middle" x="944" y="-181.8" font-family="Helvetica,sans-Serif" font-size="8.00">UmlMethod</text>
<polyline fill="none" stroke="black" points="851.5,-173 1036.5,-173 "/>
<text text-anchor="start" x="859.5" y="-161.8" font-family="Helvetica,sans-Serif" font-size="8.00">Attributes:</text>
<text text-anchor="start" x="859.5" y="-149.8" font-family="Helvetica,sans-Serif" font-size="8.00">+ parameters : string[]</text>
<text text-anchor="start" x="859.5" y="-137.8" font-family="Helvetica,sans-Serif" font-size="8.00">+ returntype : string</text>
<text text-anchor="start" x="859.5" y="-125.8" font-family="Helvetica,sans-Serif" font-size="8.00">Methods:</text>
<polyline fill="none" stroke="black" points="851.5,-117 1036.5,-117 "/>
<text text-anchor="start" x="859.5" y="-105.8" font-family="Helvetica,sans-Serif" font-size="8.00">+ UmlMethod (CSharpBlock block)</text>
<text text-anchor="start" x="859.5" y="-93.8" font-family="Helvetica,sans-Serif" font-size="8.00">+ UmlMethod (UmlBlock block)</text>
<text text-anchor="start" x="859.5" y="-81.8" font-family="Helvetica,sans-Serif" font-size="8.00">+ Matches (CSharpBlock block) : bool static</text>
<text text-anchor="start" x="859.5" y="-69.8" font-family="Helvetica,sans-Serif" font-size="8.00">+ Matches (UmlBlock block) : bool static</text>
<text text-anchor="start" x="859.5" y="-57.8" font-family="Helvetica,sans-Serif" font-size="8.00">+ ToUmlCode (int padding = 0) : string override</text>
</g>
<!-- Box_UmlObject&#45;&gt;Box_UmlMethod -->
<g id="edge12" class="edge"><title>Box_UmlObject&#45;&gt;Box_UmlMethod</title>
<path fill="none" stroke="midnightblue" d="M620.582,-328.951C686.792,-314.232 775.725,-287.595 843,-242 862.367,-228.874 880.063,-211.019 895.045,-193.058"/>
<polygon fill="none" stroke="midnightblue" points="619.601,-325.583 610.571,-331.125 621.086,-332.423 619.601,-325.583"/>
</g>
<!-- Box_IEquatable -->
<g id="node7" class="node"><title>Box_IEquatable</title>
<polygon fill="#ffffff" stroke="black" points="476.5,-595 476.5,-615 579.5,-615 579.5,-595 476.5,-595"/>
<text text-anchor="middle" x="528" y="-603.8" font-family="Helvetica,sans-Serif" font-size="8.00">IEquatable&lt;IUmlObject&gt;</text>
</g>
<!-- Box_IEquatable&#45;&gt;Box_IUmlObject -->
<g id="edge2" class="edge"><title>Box_IEquatable&#45;&gt;Box_IUmlObject</title>
<path fill="none" stroke="midnightblue" d="M528,-584.752C528,-576.743 528,-567.119 528,-557.332"/>
<polygon fill="none" stroke="midnightblue" points="524.5,-584.847 528,-594.847 531.5,-584.847 524.5,-584.847"/>
</g>
</g>
</svg>
