<?xml version="1.0" encoding="UTF-8" standalone="no"?>
<!DOCTYPE svg PUBLIC "-//W3C//DTD SVG 1.1//EN"
 "http://www.w3.org/Graphics/SVG/1.1/DTD/svg11.dtd">
<!-- Generated by graphviz version 2.26.3 (20100126.1600)
 -->
<!-- Title: MenuItem Pages: 1 -->
<svg width="266pt" height="240pt"
 viewBox="0.00 0.00 266.00 240.00" xmlns="http://www.w3.org/2000/svg" xmlns:xlink="http://www.w3.org/1999/xlink">
<g id="graph1" class="graph" transform="scale(1 1) rotate(0) translate(4 236)">
<title>MenuItem</title>
<polygon fill="white" stroke="white" points="-4,5 -4,-236 263,-236 263,5 -4,5"/>
<!-- Box_CSharpParser -->
<g id="node1" class="node"><title>Box_CSharpParser</title>
<polygon fill="#fcfcda" stroke="black" points="-0.5,-1 -0.5,-109 258.5,-109 258.5,-1 -0.5,-1"/>
<text text-anchor="middle" x="129" y="-97.8" font-family="Helvetica,sans-Serif" font-size="8.00">CSharpParser</text>
<polyline fill="none" stroke="black" points="-0.5,-89 258.5,-89 "/>
<text text-anchor="start" x="7.5" y="-77.8" font-family="Helvetica,sans-Serif" font-size="8.00">Attributes:</text>
<text text-anchor="start" x="7.5" y="-65.8" font-family="Helvetica,sans-Serif" font-size="8.00">Methods:</text>
<polyline fill="none" stroke="black" points="-0.5,-57 258.5,-57 "/>
<text text-anchor="start" x="7.5" y="-45.8" font-family="Helvetica,sans-Serif" font-size="8.00">+ CSharpParser ()</text>
<text text-anchor="start" x="7.5" y="-33.8" font-family="Helvetica,sans-Serif" font-size="8.00">+ Parse (char[] chars, ref int i) : CSharpBlock[]</text>
<text text-anchor="start" x="7.5" y="-21.8" font-family="Helvetica,sans-Serif" font-size="8.00">+ Parse (IEnumerable&lt;string&gt; lines) : IEnumerable&lt;IUmlObject&gt;</text>
<text text-anchor="start" x="7.5" y="-9.8" font-family="Helvetica,sans-Serif" font-size="8.00">&#45; StripComments (IEnumerable&lt;string&gt; lines) : IEnumerable&lt;string&gt;</text>
</g>
<!-- Box_IParser -->
<g id="node2" class="node"><title>Box_IParser</title>
<polygon fill="#dafcda" stroke="black" points="6.5,-147 6.5,-231 251.5,-231 251.5,-147 6.5,-147"/>
<text text-anchor="middle" x="129" y="-219.8" font-family="Helvetica,sans-Serif" font-size="8.00">IParser</text>
<polyline fill="none" stroke="black" points="6.5,-211 251.5,-211 "/>
<text text-anchor="start" x="14.5" y="-199.8" font-family="Helvetica,sans-Serif" font-size="8.00">Attributes:</text>
<text text-anchor="start" x="14.5" y="-187.8" font-family="Helvetica,sans-Serif" font-size="8.00">Methods:</text>
<polyline fill="none" stroke="black" points="6.5,-179 251.5,-179 "/>
<text text-anchor="start" x="14.5" y="-167.8" font-family="Helvetica,sans-Serif" font-size="8.00">+ Parse (IEnumerable&lt;string&gt; lines) : IEnumerable&lt;IUmlObject&gt;</text>
<text text-anchor="start" x="14.5" y="-155.8" font-family="Helvetica,sans-Serif" font-size="8.00">+ Parse (string filename) : IEnumerable&lt;IUmlObject&gt;</text>
</g>
<!-- Box_IParser&#45;&gt;Box_CSharpParser -->
<g id="edge2" class="edge"><title>Box_IParser&#45;&gt;Box_CSharpParser</title>
<path fill="none" stroke="midnightblue" d="M129,-136.907C129,-127.816 129,-118.338 129,-109.192"/>
<polygon fill="none" stroke="midnightblue" points="125.5,-136.969 129,-146.969 132.5,-136.969 125.5,-136.969"/>
</g>
</g>
</svg>
