<?xml version="1.0" encoding="UTF-8" standalone="no"?>
<!DOCTYPE svg PUBLIC "-//W3C//DTD SVG 1.1//EN"
 "http://www.w3.org/Graphics/SVG/1.1/DTD/svg11.dtd">
<!-- Generated by graphviz version 2.26.3 (20100126.1600)
 -->
<!-- Title: MenuItem Pages: 1 -->
<svg width="406pt" height="276pt"
 viewBox="0.00 0.00 406.00 276.00" xmlns="http://www.w3.org/2000/svg" xmlns:xlink="http://www.w3.org/1999/xlink">
<g id="graph1" class="graph" transform="scale(1 1) rotate(0) translate(4 272)">
<title>MenuItem</title>
<polygon fill="white" stroke="white" points="-4,5 -4,-272 403,-272 403,5 -4,5"/>
<!-- Box_Block -->
<g id="node1" class="node"><title>Box_Block</title>
<polygon fill="#fcfcda" stroke="black" points="138.5,-123 138.5,-267 273.5,-267 273.5,-123 138.5,-123"/>
<text text-anchor="middle" x="206" y="-255.8" font-family="Helvetica,sans-Serif" font-size="8.00">Block&lt;T&gt;</text>
<polyline fill="none" stroke="black" points="138.5,-247 273.5,-247 "/>
<text text-anchor="start" x="146.5" y="-235.8" font-family="Helvetica,sans-Serif" font-size="8.00">Attributes:</text>
<text text-anchor="start" x="146.5" y="-223.8" font-family="Helvetica,sans-Serif" font-size="8.00">+ Name : string</text>
<text text-anchor="start" x="146.5" y="-211.8" font-family="Helvetica,sans-Serif" font-size="8.00">+ Content : T[]</text>
<text text-anchor="start" x="146.5" y="-199.8" font-family="Helvetica,sans-Serif" font-size="8.00">+ Count : int</text>
<text text-anchor="start" x="146.5" y="-187.8" font-family="Helvetica,sans-Serif" font-size="8.00">Methods:</text>
<polyline fill="none" stroke="black" points="138.5,-179 273.5,-179 "/>
<text text-anchor="start" x="146.5" y="-167.8" font-family="Helvetica,sans-Serif" font-size="8.00">+ Block (string name, T[] content)</text>
<text text-anchor="start" x="146.5" y="-155.8" font-family="Helvetica,sans-Serif" font-size="8.00">+ Block (string name)</text>
<text text-anchor="start" x="146.5" y="-143.8" font-family="Helvetica,sans-Serif" font-size="8.00">+ ToString () : string override</text>
<text text-anchor="start" x="146.5" y="-131.8" font-family="Helvetica,sans-Serif" font-size="8.00">+ ToString (int padding) : string</text>
</g>
<!-- Box_CSharpBlock -->
<g id="node2" class="node"><title>Box_CSharpBlock</title>
<polygon fill="#fcfcda" stroke="black" points="0,-1 0,-85 204,-85 204,-1 0,-1"/>
<text text-anchor="middle" x="102" y="-73.8" font-family="Helvetica,sans-Serif" font-size="8.00">CSharpBlock</text>
<polyline fill="none" stroke="black" points="0,-65 204,-65 "/>
<text text-anchor="start" x="8" y="-53.8" font-family="Helvetica,sans-Serif" font-size="8.00">Attributes:</text>
<text text-anchor="start" x="8" y="-41.8" font-family="Helvetica,sans-Serif" font-size="8.00">Methods:</text>
<polyline fill="none" stroke="black" points="0,-33 204,-33 "/>
<text text-anchor="start" x="8" y="-21.8" font-family="Helvetica,sans-Serif" font-size="8.00">+ CSharpBlock (string name, CSharpBlock[] content)</text>
<text text-anchor="start" x="8" y="-9.8" font-family="Helvetica,sans-Serif" font-size="8.00">+ CSharpBlock (string name)</text>
</g>
<!-- Box_Block&#45;&gt;Box_CSharpBlock -->
<g id="edge2" class="edge"><title>Box_Block&#45;&gt;Box_CSharpBlock</title>
<path fill="none" stroke="midnightblue" d="M150.666,-114.127C143.805,-104.1 137.022,-94.1862 130.797,-85.0882"/>
<polygon fill="none" stroke="midnightblue" points="147.901,-116.285 156.437,-122.561 153.678,-112.332 147.901,-116.285"/>
</g>
<!-- Box_UmlBlock -->
<g id="node3" class="node"><title>Box_UmlBlock</title>
<polygon fill="#fcfcda" stroke="black" points="221.5,-1 221.5,-85 398.5,-85 398.5,-1 221.5,-1"/>
<text text-anchor="middle" x="310" y="-73.8" font-family="Helvetica,sans-Serif" font-size="8.00">UmlBlock</text>
<polyline fill="none" stroke="black" points="221.5,-65 398.5,-65 "/>
<text text-anchor="start" x="229.5" y="-53.8" font-family="Helvetica,sans-Serif" font-size="8.00">Attributes:</text>
<text text-anchor="start" x="229.5" y="-41.8" font-family="Helvetica,sans-Serif" font-size="8.00">Methods:</text>
<polyline fill="none" stroke="black" points="221.5,-33 398.5,-33 "/>
<text text-anchor="start" x="229.5" y="-21.8" font-family="Helvetica,sans-Serif" font-size="8.00">+ UmlBlock (string name, UmlBlock[] content)</text>
<text text-anchor="start" x="229.5" y="-9.8" font-family="Helvetica,sans-Serif" font-size="8.00">+ UmlBlock (string name)</text>
</g>
<!-- Box_Block&#45;&gt;Box_UmlBlock -->
<g id="edge4" class="edge"><title>Box_Block&#45;&gt;Box_UmlBlock</title>
<path fill="none" stroke="midnightblue" d="M261.334,-114.127C268.195,-104.1 274.978,-94.1862 281.203,-85.0882"/>
<polygon fill="none" stroke="midnightblue" points="258.322,-112.332 255.563,-122.561 264.099,-116.285 258.322,-112.332"/>
</g>
</g>
</svg>
