<?xml version="1.0" encoding="UTF-8" standalone="no"?>
<!DOCTYPE svg PUBLIC "-//W3C//DTD SVG 1.1//EN"
 "http://www.w3.org/Graphics/SVG/1.1/DTD/svg11.dtd">
<!-- Generated by graphviz version 2.26.3 (20100126.1600)
 -->
<!-- Title: MenuItem Pages: 1 -->
<svg width="184pt" height="276pt"
 viewBox="0.00 0.00 184.00 276.00" xmlns="http://www.w3.org/2000/svg" xmlns:xlink="http://www.w3.org/1999/xlink">
<g id="graph1" class="graph" transform="scale(1 1) rotate(0) translate(4 272)">
<title>MenuItem</title>
<polygon fill="white" stroke="white" points="-4,5 -4,-272 181,-272 181,5 -4,5"/>
<!-- Box_UmlBlock -->
<g id="node1" class="node"><title>Box_UmlBlock</title>
<polygon fill="#fcfcda" stroke="black" points="-0.5,-1 -0.5,-85 176.5,-85 176.5,-1 -0.5,-1"/>
<text text-anchor="middle" x="88" y="-73.8" font-family="Helvetica,sans-Serif" font-size="8.00">UmlBlock</text>
<polyline fill="none" stroke="black" points="-0.5,-65 176.5,-65 "/>
<text text-anchor="start" x="7.5" y="-53.8" font-family="Helvetica,sans-Serif" font-size="8.00">Attributes:</text>
<text text-anchor="start" x="7.5" y="-41.8" font-family="Helvetica,sans-Serif" font-size="8.00">Methods:</text>
<polyline fill="none" stroke="black" points="-0.5,-33 176.5,-33 "/>
<text text-anchor="start" x="7.5" y="-21.8" font-family="Helvetica,sans-Serif" font-size="8.00">+ UmlBlock (string name, UmlBlock[] content)</text>
<text text-anchor="start" x="7.5" y="-9.8" font-family="Helvetica,sans-Serif" font-size="8.00">+ UmlBlock (string name)</text>
</g>
<!-- Box_Block -->
<g id="node2" class="node"><title>Box_Block</title>
<polygon fill="#fcfcda" stroke="black" points="20.5,-123 20.5,-267 155.5,-267 155.5,-123 20.5,-123"/>
<text text-anchor="middle" x="88" y="-255.8" font-family="Helvetica,sans-Serif" font-size="8.00">Block&lt;T&gt;</text>
<polyline fill="none" stroke="black" points="20.5,-247 155.5,-247 "/>
<text text-anchor="start" x="28.5" y="-235.8" font-family="Helvetica,sans-Serif" font-size="8.00">Attributes:</text>
<text text-anchor="start" x="28.5" y="-223.8" font-family="Helvetica,sans-Serif" font-size="8.00">+ Name : string</text>
<text text-anchor="start" x="28.5" y="-211.8" font-family="Helvetica,sans-Serif" font-size="8.00">+ Content : T[]</text>
<text text-anchor="start" x="28.5" y="-199.8" font-family="Helvetica,sans-Serif" font-size="8.00">+ Count : int</text>
<text text-anchor="start" x="28.5" y="-187.8" font-family="Helvetica,sans-Serif" font-size="8.00">Methods:</text>
<polyline fill="none" stroke="black" points="20.5,-179 155.5,-179 "/>
<text text-anchor="start" x="28.5" y="-167.8" font-family="Helvetica,sans-Serif" font-size="8.00">+ Block (string name, T[] content)</text>
<text text-anchor="start" x="28.5" y="-155.8" font-family="Helvetica,sans-Serif" font-size="8.00">+ Block (string name)</text>
<text text-anchor="start" x="28.5" y="-143.8" font-family="Helvetica,sans-Serif" font-size="8.00">+ ToString () : string override</text>
<text text-anchor="start" x="28.5" y="-131.8" font-family="Helvetica,sans-Serif" font-size="8.00">+ ToString (int padding) : string</text>
</g>
<!-- Box_Block&#45;&gt;Box_UmlBlock -->
<g id="edge2" class="edge"><title>Box_Block&#45;&gt;Box_UmlBlock</title>
<path fill="none" stroke="midnightblue" d="M88,-112.324C88,-102.913 88,-93.6404 88,-85.0882"/>
<polygon fill="none" stroke="midnightblue" points="84.5001,-112.561 88,-122.561 91.5001,-112.561 84.5001,-112.561"/>
</g>
</g>
</svg>
